<?xml version="1.0" encoding="UTF-8"?>
<svg width="16px" height="16px" viewBox="0 0 16 16" version="1.1" xmlns="http://www.w3.org/2000/svg" xmlns:xlink="http://www.w3.org/1999/xlink">
    <title>plus circle备份 2</title>
    <g id="OKBOX" stroke="none" stroke-width="1" fill="none" fill-rule="evenodd" fill-opacity="0.48">
        <g id="OKBOX暂无提现记录" transform="translate(-774.000000, -957.000000)" fill="#FFFFFF" fill-rule="nonzero">
            <g id="编组-4" transform="translate(384.000000, 915.000000)">
                <g id="plus-circle" transform="translate(390.999971, 42.999999)">
                    <path d="M13.4166667,7 C13.4166667,10.5437889 10.5437889,13.4166667 7,13.4166667 L7,14.5833333 C11.1881778,14.5833333 14.5833333,11.1881778 14.5833333,7 L13.4166667,7 Z M7,13.4166667 C3.45617222,13.4166667 0.583333333,10.5437889 0.583333333,7 L-0.583333333,7 C-0.583333333,11.1881778 2.81183778,14.5833333 7,14.5833333 L7,13.4166667 Z M0.583333333,7 C0.583333333,3.45617222 3.45617222,0.583333333 7,0.583333333 L7,-0.583333333 C2.81183778,-0.583333333 -0.583333333,2.81183778 -0.583333333,7 L0.583333333,7 Z M7,0.583333333 C10.5437889,0.583333333 13.4166667,3.45617222 13.4166667,7 L14.5833333,7 C14.5833333,2.81183778 11.1881778,-0.583333333 7,-0.583333333 L7,0.583333333 Z" id="stroke"></path>
                    <path d="M3.88888889,6.41666667 C3.56672556,6.41666667 3.30555556,6.67783667 3.30555556,7 C3.30555556,7.32216333 3.56672556,7.58333333 3.88888889,7.58333333 L3.88888889,6.41666667 Z M10.1111111,7.58333333 C10.4332744,7.58333333 10.6944444,7.32216333 10.6944444,7 C10.6944444,6.67783667 10.4332744,6.41666667 10.1111111,6.41666667 L10.1111111,7.58333333 Z M3.88888889,7.58333333 L10.1111111,7.58333333 L10.1111111,6.41666667 L3.88888889,6.41666667 L3.88888889,7.58333333 Z" id="stroke"></path>
                    <path d="M6.41666639,10.1111111 C6.41666639,10.4332744 6.67783639,10.6944444 6.99999973,10.6944444 C7.32216306,10.6944444 7.58333306,10.4332744 7.58333306,10.1111111 L6.41666639,10.1111111 Z M7.58333306,3.88888889 C7.58333306,3.56672556 7.32216306,3.30555556 6.99999973,3.30555556 C6.67783639,3.30555556 6.41666639,3.56672556 6.41666639,3.88888889 L7.58333306,3.88888889 Z M7.58333306,10.1111111 L7.58333306,3.88888889 L6.41666639,3.88888889 L6.41666639,10.1111111 L7.58333306,10.1111111 Z" id="stroke"></path>
                </g>
            </g>
        </g>
    </g>
</svg>