<?xml version="1.0" encoding="UTF-8"?>
<svg width="40px" height="40px" viewBox="0 0 40 40" version="1.1" xmlns="http://www.w3.org/2000/svg" xmlns:xlink="http://www.w3.org/1999/xlink">
    <title>AIDOGE</title>
    <defs>
        <linearGradient x1="50%" y1="1.54379321%" x2="50%" y2="97.9143787%" id="linearGradient-1">
            <stop stop-color="#031937" offset="0%"></stop>
            <stop stop-color="#1292BD" offset="100%"></stop>
        </linearGradient>
        <linearGradient x1="50%" y1="-3.42174206e-14%" x2="50%" y2="100%" id="linearGradient-2">
            <stop stop-color="#46A8EC" offset="0%"></stop>
            <stop stop-color="#ADF6F8" offset="100%"></stop>
        </linearGradient>
        <path d="M11.0810704,6.90464147 C11.7694989,7.25183862 12.3117962,8.19819848 12.7079626,9.74372098 C13.0528672,11.0892614 13.3360695,12.5627584 13.5575697,14.164212 L13.558048,14.1641461 C13.6245678,14.6470577 13.5685899,15.1389436 13.3952631,15.5945601 C12.4935912,17.9588028 11.2898018,19.9089495 9.78410727,21.4450809 C8.27679805,22.9828597 6.29990136,24.5269249 3.85341721,26.0772764 C3.38909635,26.3718862 2.85054794,26.5283593 2.30064954,26.5283593 L0,26.5283593 L0,26.5283593 L0,0 L3.80371536,0 C4.01984964,0 4.22719216,0.085575012 4.38041079,0.238015422 L11.0810704,6.90464147 L11.0810704,6.90464147 Z" id="path-3"></path>
        <path d="M11.0810704,6.90464147 C11.7694989,7.25183862 12.3117962,8.19819848 12.7079626,9.74372098 C13.0528672,11.0892614 13.3360695,12.5627584 13.5575697,14.164212 L13.558048,14.1641461 C13.6245678,14.6470577 13.5685899,15.1389436 13.3952631,15.5945601 C12.4935912,17.9588028 11.2898018,19.9089495 9.78410727,21.4450809 C8.27679805,22.9828597 6.29990136,24.5269249 3.85341721,26.0772764 C3.38909635,26.3718862 2.85054794,26.5283593 2.30064954,26.5283593 L0,26.5283593 L0,26.5283593 L0,0 L3.80371536,0 C4.01984964,0 4.22719216,0.085575012 4.38041079,0.238015422 L11.0810704,6.90464147 L11.0810704,6.90464147 Z" id="path-5"></path>
        <path d="M11.0810704,6.90464147 C11.7694989,7.25183862 12.3117962,8.19819848 12.7079626,9.74372098 C13.0528672,11.0892614 13.3360695,12.5627584 13.5575697,14.164212 L13.558048,14.1641461 C13.6245678,14.6470577 13.5685899,15.1389436 13.3952631,15.5945601 C12.4935912,17.9588028 11.2898018,19.9089495 9.78410727,21.4450809 C8.27679805,22.9828597 6.29990136,24.5269249 3.85341721,26.0772764 C3.38909635,26.3718862 2.85054794,26.5283593 2.30064954,26.5283593 L0,26.5283593 L0,26.5283593 L0,0 L3.80371536,0 C4.01984964,0 4.22719216,0.085575012 4.38041079,0.238015422 L11.0810704,6.90464147 L11.0810704,6.90464147 Z" id="path-7"></path>
        <path d="M15.2342631,1.45821109 C11.4268043,-1.23702177 8.04028969,-0.196025929 5.07471919,4.5811986 C4.53365618,5.45279463 1.16369103,6.31001263 0.751509002,7.04551965 C-0.73782472,9.70312079 -0.0134973987,11.7245454 2.92449097,13.1097936 L15.2342631,1.45821109 Z" id="path-9"></path>
        <path d="M0,0 C0,0 0.559868918,0.0349810457 1.39935488,0.624663318 C2.32088126,1.27197346 4.41302709,3.78276218 4.93756111,7.67693693 C5.18026765,9.47880607 3.53441395,10.640936 0,11.1633266 C0,3.72110887 0,0 0,0 Z" id="path-11"></path>
        <path d="M0,0 C0,0 0.559868918,0.0349810457 1.39935488,0.624663318 C2.32088126,1.27197346 4.41302709,3.78276218 4.93756111,7.67693693 C5.18026765,9.47880607 3.53441395,10.640936 0,11.1633266 C0,3.72110887 0,0 0,0 Z" id="path-13"></path>
        <path d="M0,0 C0,0 0.559868918,0.0349810457 1.39935488,0.624663318 C2.32088126,1.27197346 4.41302709,3.78276218 4.93756111,7.67693693 C5.18026765,9.47880607 3.53441395,10.640936 0,11.1633266 C0,3.72110887 0,0 0,0 Z" id="path-15"></path>
        <path d="M0,0 C0,0 0.559868918,0.0349810457 1.39935488,0.624663318 C2.32088126,1.27197346 4.41302709,3.78276218 4.93756111,7.67693693 C5.18026765,9.47880607 3.53441395,10.640936 0,11.1633266 C0,3.72110887 0,0 0,0 Z" id="path-17"></path>
        <path d="M0,0 C0,0 0.559868918,0.0349810457 1.39935488,0.624663318 C2.32088126,1.27197346 4.41302709,3.78276218 4.93756111,7.67693693 C5.18026765,9.47880607 3.53441395,10.640936 0,11.1633266 C0,3.72110887 0,0 0,0 Z" id="path-19"></path>
        <path d="M0,1.83972355 C0.508166811,2.83907956 0.955656992,3.36904107 1.34247053,3.4296081 C1.72928408,3.49017513 2.77595601,3.07377679 4.48248636,2.1804131 L5.57466577,0.726804366 C5.40854627,0.596365032 5.287193,0.490372728 5.21060596,0.408827455 C5.13401893,0.327282184 5.02783482,0.191006365 4.89205363,0 C3.68600158,0.339777876 2.80998268,0.612329512 2.26399692,0.817654911 C1.71801116,1.02298031 0.963345512,1.36366986 0,1.83972355 Z" id="path-21"></path>
        <path d="M0,0.171848595 C0.151691585,1.26962602 0.409567281,1.96614687 0.773627086,2.26141115 C1.12071236,2.54290852 1.64014253,2.33927123 2.33191759,1.65049924 C2.39546126,1.58913225 2.41593137,1.49611071 2.38496503,1.41339139 L1.95471219,0.265369952 C1.88904429,0.0901516873 1.7127994,-0.0181186798 1.52682027,0.00250834143 L0,0.171848595 L0,0.171848595 Z" id="path-23"></path>
        <path d="M0,0.171848595 C0.151691585,1.26962602 0.409567281,1.96614687 0.773627086,2.26141115 C1.12071236,2.54290852 1.64014253,2.33927123 2.33191759,1.65049924 C2.39546126,1.58913225 2.41593137,1.49611071 2.38496503,1.41339139 L1.95471219,0.265369952 C1.88904429,0.0901516873 1.7127994,-0.0181186798 1.52682027,0.00250834143 L0,0.171848595 L0,0.171848595 Z" id="path-25"></path>
        <path d="M0,1.83972355 C0.508166811,2.83907956 0.955656992,3.36904107 1.34247053,3.4296081 C1.72928408,3.49017513 2.77595601,3.07377679 4.48248636,2.1804131 L5.57466577,0.726804366 C5.40854627,0.596365032 5.287193,0.490372728 5.21060596,0.408827455 C5.13401893,0.327282184 5.02783482,0.191006365 4.89205363,0 C3.68600158,0.339777876 2.80998268,0.612329512 2.26399692,0.817654911 C1.71801116,1.02298031 0.963345512,1.36366986 0,1.83972355 Z" id="path-27"></path>
        <path d="M11.0810704,6.90464147 C11.7694989,7.25183862 12.3117962,8.19819848 12.7079626,9.74372098 C13.0528672,11.0892614 13.3360695,12.5627584 13.5575697,14.164212 L13.558048,14.1641461 C13.6245678,14.6470577 13.5685899,15.1389436 13.3952631,15.5945601 C12.4935912,17.9588028 11.2898018,19.9089495 9.78410727,21.4450809 C8.27679805,22.9828597 6.29990136,24.5269249 3.85341721,26.0772764 C3.38909635,26.3718862 2.85054794,26.5283593 2.30064954,26.5283593 L0,26.5283593 L0,26.5283593 L0,0 L3.80371536,0 C4.01984964,0 4.22719216,0.085575012 4.38041079,0.238015422 L11.0810704,6.90464147 L11.0810704,6.90464147 Z" id="path-29"></path>
        <path d="M11.0810704,6.90464147 C11.7694989,7.25183862 12.3117962,8.19819848 12.7079626,9.74372098 C13.0528672,11.0892614 13.3360695,12.5627584 13.5575697,14.164212 L13.558048,14.1641461 C13.6245678,14.6470577 13.5685899,15.1389436 13.3952631,15.5945601 C12.4935912,17.9588028 11.2898018,19.9089495 9.78410727,21.4450809 C8.27679805,22.9828597 6.29990136,24.5269249 3.85341721,26.0772764 C3.38909635,26.3718862 2.85054794,26.5283593 2.30064954,26.5283593 L0,26.5283593 L0,26.5283593 L0,0 L3.80371536,0 C4.01984964,0 4.22719216,0.085575012 4.38041079,0.238015422 L11.0810704,6.90464147 L11.0810704,6.90464147 Z" id="path-31"></path>
        <path d="M15.2342631,1.45821109 C11.4268043,-1.23702177 8.04028969,-0.196025929 5.07471919,4.5811986 C4.53365618,5.45279463 1.16369103,6.31001263 0.751509002,7.04551965 C-0.73782472,9.70312079 -0.0134973987,11.7245454 2.92449097,13.1097936 L15.2342631,1.45821109 Z" id="path-33"></path>
        <path d="M0,0 C0,0 0.559868918,0.0349810457 1.39935488,0.624663318 C2.32088126,1.27197346 4.41302709,3.78276218 4.93756111,7.67693693 C5.18026765,9.47880607 3.53441395,10.640936 0,11.1633266 C0,3.72110887 0,0 0,0 Z" id="path-35"></path>
        <path d="M0,0 C0,0 0.559868918,0.0349810457 1.39935488,0.624663318 C2.32088126,1.27197346 4.41302709,3.78276218 4.93756111,7.67693693 C5.18026765,9.47880607 3.53441395,10.640936 0,11.1633266 C0,3.72110887 0,0 0,0 Z" id="path-37"></path>
        <path d="M0,0 C0,0 0.559868918,0.0349810457 1.39935488,0.624663318 C2.32088126,1.27197346 4.41302709,3.78276218 4.93756111,7.67693693 C5.18026765,9.47880607 3.53441395,10.640936 0,11.1633266 C0,3.72110887 0,0 0,0 Z" id="path-39"></path>
        <path d="M0,0 C0,0 0.559868918,0.0349810457 1.39935488,0.624663318 C2.32088126,1.27197346 4.41302709,3.78276218 4.93756111,7.67693693 C5.18026765,9.47880607 3.53441395,10.640936 0,11.1633266 C0,3.72110887 0,0 0,0 Z" id="path-41"></path>
        <path d="M0,1.83972355 C0.508166811,2.83907956 0.955656992,3.36904107 1.34247053,3.4296081 C1.72928408,3.49017513 2.77595601,3.07377679 4.48248636,2.1804131 L5.57466577,0.726804366 C5.40854627,0.596365032 5.287193,0.490372728 5.21060596,0.408827455 C5.13401893,0.327282184 5.02783482,0.191006365 4.89205363,0 C3.68600158,0.339777876 2.80998268,0.612329512 2.26399692,0.817654911 C1.71801116,1.02298031 0.963345512,1.36366986 0,1.83972355 Z" id="path-43"></path>
        <path d="M0,0.171848595 C0.151691585,1.26962602 0.409567281,1.96614687 0.773627086,2.26141115 C1.12071236,2.54290852 1.64014253,2.33927123 2.33191759,1.65049924 C2.39546126,1.58913225 2.41593137,1.49611071 2.38496503,1.41339139 L1.95471219,0.265369952 C1.88904429,0.0901516873 1.7127994,-0.0181186798 1.52682027,0.00250834143 L0,0.171848595 L0,0.171848595 Z" id="path-45"></path>
        <path d="M0,0.171848595 C0.151691585,1.26962602 0.409567281,1.96614687 0.773627086,2.26141115 C1.12071236,2.54290852 1.64014253,2.33927123 2.33191759,1.65049924 C2.39546126,1.58913225 2.41593137,1.49611071 2.38496503,1.41339139 L1.95471219,0.265369952 C1.88904429,0.0901516873 1.7127994,-0.0181186798 1.52682027,0.00250834143 L0,0.171848595 L0,0.171848595 Z" id="path-47"></path>
        <path d="M0,1.83972355 C0.508166811,2.83907956 0.955656992,3.36904107 1.34247053,3.4296081 C1.72928408,3.49017513 2.77595601,3.07377679 4.48248636,2.1804131 L5.57466577,0.726804366 C5.40854627,0.596365032 5.287193,0.490372728 5.21060596,0.408827455 C5.13401893,0.327282184 5.02783482,0.191006365 4.89205363,0 C3.68600158,0.339777876 2.80998268,0.612329512 2.26399692,0.817654911 C1.71801116,1.02298031 0.963345512,1.36366986 0,1.83972355 Z" id="path-49"></path>
        <linearGradient x1="49.2482291%" y1="6.72205347e-16%" x2="41.8261377%" y2="63.685991%" id="linearGradient-51">
            <stop stop-color="#36AED1" offset="0%"></stop>
            <stop stop-color="#2D648E" offset="100%"></stop>
        </linearGradient>
        <path d="M11.0810704,6.90464147 C11.7694989,7.25183862 12.3117962,8.19819848 12.7079626,9.74372098 C13.0528672,11.0892614 13.3360695,12.5627584 13.5575697,14.164212 L13.558048,14.1641461 C13.6245678,14.6470577 13.5685899,15.1389436 13.3952631,15.5945601 C12.4935912,17.9588028 11.2898018,19.9089495 9.78410727,21.4450809 C8.27679805,22.9828597 6.29990136,24.5269249 3.85341721,26.0772764 C3.38909635,26.3718862 2.85054794,26.5283593 2.30064954,26.5283593 L0,26.5283593 L0,26.5283593 L0,0 L3.80371536,0 C4.01984964,0 4.22719216,0.085575012 4.38041079,0.238015422 L11.0810704,6.90464147 L11.0810704,6.90464147 Z" id="path-52"></path>
        <linearGradient x1="50%" y1="0%" x2="46.9013794%" y2="76.8904055%" id="linearGradient-54">
            <stop stop-color="#57D2F6" offset="0%"></stop>
            <stop stop-color="#429ADC" offset="100%"></stop>
        </linearGradient>
        <path d="M1.57000791,8.83521558 C1.7193748,7.49218606 1.90519699,6.47390286 2.12747449,5.78036597 C2.34975199,5.08682908 2.76690385,4.22374889 3.37893007,3.19112542 C5.47137067,2.75034419 7.01104025,2.35665849 7.99793884,2.01006832 C8.9848374,1.66347815 10.183201,0.993455385 11.5930295,0 L13.6522427,0.806298593 L14.323478,8.83521558 L7.13329681,19.9303384 L0,19.9303384 L1.57000791,8.83521558 Z" id="path-55"></path>
        <path d="M11.0810704,6.90464147 C11.7694989,7.25183862 12.3117962,8.19819848 12.7079626,9.74372098 C13.0528672,11.0892614 13.3360695,12.5627584 13.5575697,14.164212 L13.558048,14.1641461 C13.6245678,14.6470577 13.5685899,15.1389436 13.3952631,15.5945601 C12.4935912,17.9588028 11.2898018,19.9089495 9.78410727,21.4450809 C8.27679805,22.9828597 6.29990136,24.5269249 3.85341721,26.0772764 C3.38909635,26.3718862 2.85054794,26.5283593 2.30064954,26.5283593 L0,26.5283593 L0,26.5283593 L0,0 L3.80371536,0 C4.01984964,0 4.22719216,0.085575012 4.38041079,0.238015422 L11.0810704,6.90464147 L11.0810704,6.90464147 Z" id="path-57"></path>
        <path d="M15.2342631,1.45821109 C11.4268043,-1.23702177 8.04028969,-0.196025929 5.07471919,4.5811986 C4.53365618,5.45279463 1.16369103,6.31001263 0.751509002,7.04551965 C-0.73782472,9.70312079 -0.0134973987,11.7245454 2.92449097,13.1097936 L15.2342631,1.45821109 Z" id="path-59"></path>
        <path d="M0,0 C0,0 0.559868918,0.0349810457 1.39935488,0.624663318 C2.32088126,1.27197346 4.41302709,3.78276218 4.93756111,7.67693693 C5.18026765,9.47880607 3.53441395,10.640936 0,11.1633266 C0,3.72110887 0,0 0,0 Z" id="path-61"></path>
        <path d="M0,0 C0,0 0.559868918,0.0349810457 1.39935488,0.624663318 C2.32088126,1.27197346 4.41302709,3.78276218 4.93756111,7.67693693 C5.18026765,9.47880607 3.53441395,10.640936 0,11.1633266 C0,3.72110887 0,0 0,0 Z" id="path-63"></path>
        <path d="M0,0 C0,0 0.559868918,0.0349810457 1.39935488,0.624663318 C2.32088126,1.27197346 4.41302709,3.78276218 4.93756111,7.67693693 C5.18026765,9.47880607 3.53441395,10.640936 0,11.1633266 C0,3.72110887 0,0 0,0 Z" id="path-65"></path>
        <path d="M0,0 C0,0 0.559868918,0.0349810457 1.39935488,0.624663318 C2.32088126,1.27197346 4.41302709,3.78276218 4.93756111,7.67693693 C5.18026765,9.47880607 3.53441395,10.640936 0,11.1633266 C0,3.72110887 0,0 0,0 Z" id="path-67"></path>
        <linearGradient x1="53.6789094%" y1="-3.46944695e-15%" x2="50%" y2="100%" id="linearGradient-69">
            <stop stop-color="#18586B" offset="0%"></stop>
            <stop stop-color="#1D7191" offset="100%"></stop>
        </linearGradient>
        <linearGradient x1="50%" y1="0%" x2="50%" y2="100%" id="linearGradient-70">
            <stop stop-color="#1D8CC0" offset="0%"></stop>
            <stop stop-color="#1D4C80" offset="100%"></stop>
        </linearGradient>
        <path d="M4.8692999,0 C3.65663944,1.58081693 2.76165909,2.71644876 2.18435883,3.40689547 C1.60705857,4.09734217 0.878938965,5.02098939 0,6.1778371 C0.346118112,6.63514039 0.626747545,6.98340082 0.8418883,7.22261838 C1.05702905,7.46183595 1.37558139,7.77981286 1.79754529,8.17654911 C2.15710946,8.09355018 2.42256974,8.02541227 2.59392611,7.97213539 C2.76528249,7.9188585 2.96248155,7.84314971 3.1855233,7.74500902 C3.39581675,8.0080482 3.5626775,8.19732018 3.68610553,8.31282493 C3.80953356,8.42832969 4.14325504,8.65924149 4.68726999,9.00556038 C5.13476017,7.62008952 5.39642816,6.31411292 5.47227395,5.08763056 C5.54811974,3.86114819 5.34712839,2.16527134 4.8692999,0 Z" id="path-71"></path>
        <path d="M4.8692999,0 C3.65663944,1.58081693 2.76165909,2.71644876 2.18435883,3.40689547 C1.60705857,4.09734217 0.878938965,5.02098939 0,6.1778371 C0.346118112,6.63514039 0.626747545,6.98340082 0.8418883,7.22261838 C1.05702905,7.46183595 1.37558139,7.77981286 1.79754529,8.17654911 C2.15710946,8.09355018 2.42256974,8.02541227 2.59392611,7.97213539 C2.76528249,7.9188585 2.96248155,7.84314971 3.1855233,7.74500902 C3.39581675,8.0080482 3.5626775,8.19732018 3.68610553,8.31282493 C3.80953356,8.42832969 4.14325504,8.65924149 4.68726999,9.00556038 C5.13476017,7.62008952 5.39642816,6.31411292 5.47227395,5.08763056 C5.54811974,3.86114819 5.34712839,2.16527134 4.8692999,0 Z" id="path-73"></path>
        <linearGradient x1="100%" y1="12.8194869%" x2="16.2927154%" y2="87.1805131%" id="linearGradient-75">
            <stop stop-color="#3095B4" offset="0%"></stop>
            <stop stop-color="#113D67" offset="100%"></stop>
        </linearGradient>
        <path d="M0,1.83972355 C0.508166811,2.83907956 0.955656992,3.36904107 1.34247053,3.4296081 C1.72928408,3.49017513 2.77595601,3.07377679 4.48248636,2.1804131 L5.57466577,0.726804366 C5.40854627,0.596365032 5.287193,0.490372728 5.21060596,0.408827455 C5.13401893,0.327282184 5.02783482,0.191006365 4.89205363,0 C3.68600158,0.339777876 2.80998268,0.612329512 2.26399692,0.817654911 C1.71801116,1.02298031 0.963345512,1.36366986 0,1.83972355 Z" id="path-76"></path>
        <path d="M0,0.171848595 C0.151691585,1.26962602 0.409567281,1.96614687 0.773627086,2.26141115 C1.12071236,2.54290852 1.64014253,2.33927123 2.33191759,1.65049924 C2.39546126,1.58913225 2.41593137,1.49611071 2.38496503,1.41339139 L1.95471219,0.265369952 C1.88904429,0.0901516873 1.7127994,-0.0181186798 1.52682027,0.00250834143 L0,0.171848595 L0,0.171848595 Z" id="path-78"></path>
        <path d="M0,0.171848595 C0.151691585,1.26962602 0.409567281,1.96614687 0.773627086,2.26141115 C1.12071236,2.54290852 1.64014253,2.33927123 2.33191759,1.65049924 C2.39546126,1.58913225 2.41593137,1.49611071 2.38496503,1.41339139 L1.95471219,0.265369952 C1.88904429,0.0901516873 1.7127994,-0.0181186798 1.52682027,0.00250834143 L0,0.171848595 L0,0.171848595 Z" id="path-80"></path>
        <path d="M0,1.83972355 C0.508166811,2.83907956 0.955656992,3.36904107 1.34247053,3.4296081 C1.72928408,3.49017513 2.77595601,3.07377679 4.48248636,2.1804131 L5.57466577,0.726804366 C5.40854627,0.596365032 5.287193,0.490372728 5.21060596,0.408827455 C5.13401893,0.327282184 5.02783482,0.191006365 4.89205363,0 C3.68600158,0.339777876 2.80998268,0.612329512 2.26399692,0.817654911 C1.71801116,1.02298031 0.963345512,1.36366986 0,1.83972355 Z" id="path-82"></path>
    </defs>
    <g id="OKBOX" stroke="none" stroke-width="1" fill="none" fill-rule="evenodd">
        <g id="OKBOX资产列表" transform="translate(-289.000000, -1075.000000)">
            <g id="AIDOGE" transform="translate(289.000000, 1075.000000)">
                <rect id="矩形" x="0" y="0" width="40" height="40"></rect>
                <g id="编组-5" transform="translate(3.000000, 1.000000)">
                    <path d="M15.5998735,1.63709851 C16.4904275,1.12386572 17.586939,1.12386572 18.477493,1.63709851 L31.3824763,9.07433545 C31.8288002,9.33155526 32.1894793,9.69813669 32.4385774,10.1291977 C32.6876755,10.5602586 32.8251925,11.055799 32.8251925,11.5709368 L32.8251925,26.4290632 C32.8251925,26.944201 32.6876755,27.4397414 32.4385774,27.8708023 C32.1894793,28.3018633 31.8288002,28.6684447 31.3824764,28.9256645 L18.477493,36.3629015 C17.586939,36.8761343 16.4904274,36.8761343 15.5998735,36.3629015 L2.69489017,28.9256645 C2.24856626,28.6684447 1.88788719,28.3018633 1.63878909,27.8708024 C1.38969102,27.4397414 1.25217392,26.944201 1.25217392,26.4290632 L1.25217392,11.5709368 C1.25217392,11.055799 1.38969102,10.5602585 1.6387891,10.1291976 C1.88788719,9.69813665 2.24856626,9.33155525 2.6948901,9.0743355 Z" id="多边形" stroke="url(#linearGradient-2)" stroke-width="2.50434783" fill="url(#linearGradient-1)" fill-rule="nonzero"></path>
                    <g id="编组-4" transform="translate(17.038683, 1.057017)">
                        <g id="路径-7" transform="translate(0.000000, 6.268688)">
                            <g id="蒙版" fill="#CB6E1A" fill-rule="nonzero">
                                <path d="M11.0810704,6.90464147 C11.7694989,7.25183862 12.3117962,8.19819848 12.7079626,9.74372098 C13.0528672,11.0892614 13.3360695,12.5627584 13.5575697,14.164212 L13.558048,14.1641461 C13.6245678,14.6470577 13.5685899,15.1389436 13.3952631,15.5945601 C12.4935912,17.9588028 11.2898018,19.9089495 9.78410727,21.4450809 C8.27679805,22.9828597 6.29990136,24.5269249 3.85341721,26.0772764 C3.38909635,26.3718862 2.85054794,26.5283593 2.30064954,26.5283593 L0,26.5283593 L0,26.5283593 L0,0 L3.80371536,0 C4.01984964,0 4.22719216,0.085575012 4.38041079,0.238015422 L11.0810704,6.90464147 L11.0810704,6.90464147 Z" id="path-3"></path>
                            </g>
                            <g id="矩形-Clipped">
                                <mask id="mask-4" fill="white">
                                    <use xlink:href="#path-3"></use>
                                </mask>
                                <g id="path-3"></g>
                                <rect id="矩形" fill="#EE7C46" fill-rule="nonzero" mask="url(#mask-4)" x="0" y="0" width="1" height="13.809283"></rect>
                            </g>
                            <g id="Clipped">
                                <mask id="mask-6" fill="white">
                                    <use xlink:href="#path-5"></use>
                                </mask>
                                <g id="path-3"></g>
                                <path d="M1.57000791,15.4786617 C1.7193748,14.1356322 1.90519699,13.117349 2.12747449,12.4238121 C2.34975199,11.7302752 2.76690385,10.867195 3.37893007,9.83457159 C5.47137067,9.3937903 7.01104025,9.00010462 7.99793884,8.65351447 C8.9848374,8.30692431 10.183201,7.63690154 11.5930295,6.64344615 L13.6522427,7.44974475 L14.323478,15.4786617 L7.13329681,26.5737846 L0,26.5737846 L1.57000791,15.4786617 Z" id="路径" fill="#FEA355" fill-rule="nonzero" mask="url(#mask-6)"></path>
                            </g>
                            <g id="路径-10-Clipped">
                                <mask id="mask-8" fill="white">
                                    <use xlink:href="#path-7"></use>
                                </mask>
                                <g id="path-3"></g>
                                <g id="路径-10" mask="url(#mask-8)">
                                    <g transform="translate(-0.751509, 15.848818)" id="编组">
                                        <g transform="translate(0.000000, 0.000000)">
                                            <g id="蒙版" fill="#FFFFFF">
                                                <path d="M15.2342631,1.45821109 C11.4268043,-1.23702177 8.04028969,-0.196025929 5.07471919,4.5811986 C4.53365618,5.45279463 1.16369103,6.31001263 0.751509002,7.04551965 C-0.73782472,9.70312079 -0.0134973987,11.7245454 2.92449097,13.1097936 L15.2342631,1.45821109 Z" id="path-5"></path>
                                            </g>
                                            <g id="路径-10-Clipped">
                                                <mask id="mask-10" fill="white">
                                                    <use xlink:href="#path-9"></use>
                                                </mask>
                                                <g id="path-5"></g>
                                                <path d="M7.07704812,-2.6527761 C7.06946354,2.21529897 8.68497892,6.18622491 11.9235943,9.26000171 C15.1622096,12.3337785 11.4381812,13.2763529 0.751509002,12.087725 L0.751509002,-2.48243133 L7.07704812,-2.6527761 Z" id="路径-10" fill="#C8F4FD" mask="url(#mask-10)"></path>
                                            </g>
                                        </g>
                                    </g>
                                </g>
                            </g>
                        </g>
                        <g id="路径-6-+-路径-8-+-路径-9蒙版" transform="translate(0.000000, 19.646365)">
                            <path d="M3.90226604,6.39367297 C4.06912679,6.48452351 4.94893798,7.11290645 6.54169962,8.2788218 C5.18405993,10.391097 3.97431954,11.5191579 2.91247845,11.6630046 C1.85063735,11.8068514 0.8798112,11.6365066 0,11.1519703 L0,6.39367297 C2.43464995,6.30282242 3.73540529,6.30282242 3.90226604,6.39367297 Z" id="路径-11" fill="#87BFD9" fill-rule="nonzero"></path>
                            <g id="蒙版" fill="#FFFFFF" fill-rule="nonzero">
                                <path d="M0,0 C0,0 0.559868918,0.0349810457 1.39935488,0.624663318 C2.32088126,1.27197346 4.41302709,3.78276218 4.93756111,7.67693693 C5.18026765,9.47880607 3.53441395,10.640936 0,11.1633266 C0,3.72110887 0,0 0,0 Z" id="path-7"></path>
                            </g>
                            <g id="矩形-Clipped">
                                <mask id="mask-12" fill="white">
                                    <use xlink:href="#path-11"></use>
                                </mask>
                                <g id="path-7"></g>
                                <rect id="矩形" fill="#CBD3DF" fill-rule="nonzero" mask="url(#mask-12)" x="0" y="3.27061965" width="1" height="2.45296473"></rect>
                            </g>
                            <g id="路径-6-Clipped">
                                <mask id="mask-14" fill="white">
                                    <use xlink:href="#path-13"></use>
                                </mask>
                                <g id="path-7"></g>
                                <path d="M0,-0.374692684 L0,2.68015691 C0.401982701,2.6877278 0.822926852,2.59687725 1.26283245,2.40760528 C1.70273805,2.21833331 2.14643593,1.72244074 2.59392611,0.919927588 L0,-0.374692684 Z" id="路径-6" fill="#D5FBFE" fill-rule="nonzero" mask="url(#mask-14)"></path>
                            </g>
                            <g id="路径-8-Clipped">
                                <mask id="mask-16" fill="white">
                                    <use xlink:href="#path-15"></use>
                                </mask>
                                <g id="path-7"></g>
                                <path d="M0,8.10847702 C0,8.10847702 1.42969319,8.9753426 4.28907958,10.7090739 L0,11.9242 C0,9.38038463 0,8.10847702 0,8.10847702 Z" id="路径-8" fill="#B0E9FE" fill-rule="nonzero" mask="url(#mask-16)"></path>
                            </g>
                            <g id="路径-9-Clipped">
                                <mask id="mask-18" fill="white">
                                    <use xlink:href="#path-17"></use>
                                </mask>
                                <g id="path-7"></g>
                                <polygon id="路径-9" fill="#2E6889" fill-rule="nonzero" mask="url(#mask-18)" points="0 10.2093959 3.45856815 11.2768898 0 11.5153725"></polygon>
                            </g>
                            <g id="编组-2-Clipped">
                                <mask id="mask-20" fill="white">
                                    <use xlink:href="#path-19"></use>
                                </mask>
                                <g id="path-7"></g>
                                <g id="编组-2" mask="url(#mask-20)">
                                    <g transform="translate(0.000000, 5.576018)" id="编组">
                                        <g transform="translate(0.000000, 0.000000)">
                                            <path d="M0,0 C0.116190718,0 0.888880737,0.191932804 2.31807007,0.575798412 C2.7301449,0.685746862 2.97483806,1.10906252 2.86466706,1.52107784 C2.85907879,1.54197673 2.8526148,1.56263157 2.84535047,1.58300866 L2.57638445,2.33123207 C2.48541593,2.58429294 2.30037408,2.79253303 2.05976266,2.91262142 L0,3.94064242 L0,3.94064242 C0,1.96464305 0,0.651095578 0,0 Z" id="路径-4" fill="#08273B" fill-rule="nonzero"></path>
                                            <path d="M4.85025094e-16,0.76087332 C0.0606766342,0.76087332 0.769834796,0.938788973 2.12747449,1.29462027 L4.85025094e-16,2.53245896 C4.85025094e-16,1.82079636 4.85025094e-16,1.23026781 4.85025094e-16,0.76087332 Z" id="路径-5" fill="#224A66" fill-rule="nonzero"></path>
                                            <circle id="椭圆形" fill="#03121F" fill-rule="nonzero" cx="1.36522427" cy="2.57788424" r="1"></circle>
                                        </g>
                                    </g>
                                </g>
                            </g>
                        </g>
                        <g id="编组" transform="translate(0.000000, -0.000000)">
                            <path d="M0,6.26868765 L3.847615,6.26868765 C4.01642465,6.26868765 4.18109658,6.3209366 4.3190257,6.4182621 L4.76690808,6.7342967 L4.76690808,6.7342967" id="路径-12" stroke="#FFFFFF" stroke-width="0.6"></path>
                            <path d="M3.39922864,7.76659933 C3.1945913,7.53918818 4.03357431,6.66106737 4.42241536,6.12923903 C6.94444673,2.67978908 8.79130412,0.661595957 9.69751135,0.0573612835 C10.7348816,-0.634329396 11.9030472,5.08314774 12.2213719,8.92639617 C12.393992,11.0105012 11.4092747,12.6360115 11.0844978,13.1107614 C10.7889105,13.5428426 8.1741,11.6325889 7.05996335,10.5864976 C6.53273239,10.091467 5.68864687,9.61189545 4.96811495,9.085584 C4.16602949,8.49970191 3.50702764,7.88639513 3.39922864,7.76659933 Z" id="路径" fill="#A54C00" fill-rule="nonzero"></path>
                            <path d="M9.71584605,1.499034 C8.50318561,3.07985093 7.60820524,4.21548276 7.03090499,4.90592947 C6.45360473,5.59637618 5.72548512,6.5200234 4.84654616,7.67687111 C5.19266427,8.1341744 5.4732937,8.48243482 5.68843446,8.72165238 C5.90357521,8.96086994 6.22212754,9.27884686 6.64409144,9.67558314 C7.00365562,9.59258414 7.2691159,9.5244463 7.44047227,9.47116942 C7.61182864,9.41789254 7.8090277,9.34218368 8.03206945,9.24404302 C8.24236291,9.5070822 8.40922365,9.69635417 8.53265169,9.81185892 C8.65607972,9.92736367 8.98980124,10.1582755 9.53381615,10.5045944 C9.98130634,9.11912349 10.2429743,7.81314693 10.3188201,6.58666456 C10.3946659,5.3601822 10.1936746,3.66430534 9.71584605,1.499034 Z" id="路径-2" fill="#803100" fill-rule="nonzero"></path>
                            <path d="M3.37957104,7.593138 C3.47400776,7.2429264 4.10150847,6.568152 4.42241536,6.12923903 C6.94444673,2.67978908 8.79130412,0.661595957 9.69751135,0.0573612835 C10.7348816,-0.634329396 11.9030472,5.08314774 12.2213719,8.92639617 C12.393992,11.0105012 11.4092747,12.6360115 11.0844978,13.1107614 L11.0469397,13.1619728" id="路径" stroke="#FFFFFF" stroke-width="0.6"></path>
                        </g>
                        <g id="编组-3" transform="translate(2.923855, 18.113328)">
                            <g id="路径-3" fill="#050F1A" fill-rule="nonzero">
                                <path d="M0,1.83972355 C0.508166811,2.83907956 0.955656992,3.36904107 1.34247053,3.4296081 C1.72928408,3.49017513 2.77595601,3.07377679 4.48248636,2.1804131 L5.57466577,0.726804366 C5.40854627,0.596365032 5.287193,0.490372728 5.21060596,0.408827455 C5.13401893,0.327282184 5.02783482,0.191006365 4.89205363,0 C3.68600158,0.339777876 2.80998268,0.612329512 2.26399692,0.817654911 C1.71801116,1.02298031 0.963345512,1.36366986 0,1.83972355 Z" id="path-9"></path>
                            </g>
                            <g id="蒙版-+-路径-14蒙版-Clipped">
                                <mask id="mask-22" fill="white">
                                    <use xlink:href="#path-21"></use>
                                </mask>
                                <g id="path-9"></g>
                                <g id="蒙版-+-路径-14蒙版" mask="url(#mask-22)">
                                    <g transform="translate(2.013706, 0.430036)" id="编组">
                                        <g transform="translate(0.000000, 0.000000)">
                                            <g id="蒙版" fill="#092338">
                                                <path d="M0,0.171848595 C0.151691585,1.26962602 0.409567281,1.96614687 0.773627086,2.26141115 C1.12071236,2.54290852 1.64014253,2.33927123 2.33191759,1.65049924 C2.39546126,1.58913225 2.41593137,1.49611071 2.38496503,1.41339139 L1.95471219,0.265369952 C1.88904429,0.0901516873 1.7127994,-0.0181186798 1.52682027,0.00250834143 L0,0.171848595 L0,0.171848595 Z" id="path-11"></path>
                                            </g>
                                            <g id="蒙版-Clipped">
                                                <mask id="mask-24" fill="white">
                                                    <use xlink:href="#path-23"></use>
                                                </mask>
                                                <g id="path-11"></g>
                                                <path d="M1.60413852,-0.43003627 L1.35513075,1.17178178 C1.31754847,1.41354116 1.36600356,1.66082275 1.49204905,1.87051909 L2.0137058,2.73837651 L2.0137058,2.73837651 L3.19690017,1.73902051 L1.60413852,-0.43003627 Z" id="蒙版" fill="#113147" mask="url(#mask-24)"></path>
                                            </g>
                                            <g id="路径-14-Clipped">
                                                <mask id="mask-26" fill="white">
                                                    <use xlink:href="#path-25"></use>
                                                </mask>
                                                <g id="path-11"></g>
                                                <path d="M1.21732497,-0.520886816 C1.21732497,-0.461916768 1.24248957,0.192735709 1.29281876,1.44307062 L1.29291439,1.44306478 C1.29597401,1.49314677 1.33905379,1.53126594 1.38913579,1.52820633 C1.39327591,1.5279534 1.39739386,1.52741724 1.40146072,1.52660161 C1.61518008,1.48603963 1.78891228,1.443227 1.92269084,1.39833096 C2.07765607,1.3463247 2.30898574,1.24790327 2.61667985,1.10306669 L1.92269084,-0.62309368 C1.45244693,-0.615522801 1.21732497,-0.581453847 1.21732497,-0.520886816 Z" id="路径-14" fill="#365E77" mask="url(#mask-26)"></path>
                                            </g>
                                        </g>
                                    </g>
                                </g>
                            </g>
                            <g id="椭圆形-Clipped">
                                <mask id="mask-28" fill="white">
                                    <use xlink:href="#path-27"></use>
                                </mask>
                                <g id="path-9"></g>
                                <circle id="椭圆形" fill="#FFFFFF" fill-rule="nonzero" mask="url(#mask-28)" transform="translate(2.787333, 1.215126) rotate(30.000000) translate(-2.787333, -1.215126) " cx="2.78733279" cy="1.21512607" r="1"></circle>
                            </g>
                        </g>
                    </g>
                    <g id="编组-4" transform="translate(10.246061, 17.455540) scale(-1, 1) translate(-10.246061, -17.455540) translate(3.453440, 1.057017)">
                        <g id="路径-7" transform="translate(0.000000, 6.268688)">
                            <g id="蒙版" fill="#CB6E1A" fill-rule="nonzero">
                                <path d="M11.0810704,6.90464147 C11.7694989,7.25183862 12.3117962,8.19819848 12.7079626,9.74372098 C13.0528672,11.0892614 13.3360695,12.5627584 13.5575697,14.164212 L13.558048,14.1641461 C13.6245678,14.6470577 13.5685899,15.1389436 13.3952631,15.5945601 C12.4935912,17.9588028 11.2898018,19.9089495 9.78410727,21.4450809 C8.27679805,22.9828597 6.29990136,24.5269249 3.85341721,26.0772764 C3.38909635,26.3718862 2.85054794,26.5283593 2.30064954,26.5283593 L0,26.5283593 L0,26.5283593 L0,0 L3.80371536,0 C4.01984964,0 4.22719216,0.085575012 4.38041079,0.238015422 L11.0810704,6.90464147 L11.0810704,6.90464147 Z" id="path-13"></path>
                            </g>
                            <g id="Clipped">
                                <mask id="mask-30" fill="white">
                                    <use xlink:href="#path-29"></use>
                                </mask>
                                <g id="path-13"></g>
                                <path d="M1.57000791,15.4786617 C1.7193748,14.1356322 1.90519699,13.117349 2.12747449,12.4238121 C2.34975199,11.7302752 2.76690385,10.867195 3.37893007,9.83457159 C5.47137067,9.3937903 7.01104025,9.00010462 7.99793884,8.65351447 C8.9848374,8.30692431 10.183201,7.63690154 11.5930295,6.64344615 L13.6522427,7.44974475 L14.323478,15.4786617 L7.13329681,26.5737846 L0,26.5737846 L1.57000791,15.4786617 Z" id="路径" fill="#FEA355" fill-rule="nonzero" mask="url(#mask-30)"></path>
                            </g>
                            <g id="路径-10-Clipped">
                                <mask id="mask-32" fill="white">
                                    <use xlink:href="#path-31"></use>
                                </mask>
                                <g id="path-13"></g>
                                <g id="路径-10" mask="url(#mask-32)">
                                    <g transform="translate(-0.751509, 15.848818)" id="编组">
                                        <g transform="translate(0.000000, 0.000000)">
                                            <g id="蒙版" fill="#FFFFFF">
                                                <path d="M15.2342631,1.45821109 C11.4268043,-1.23702177 8.04028969,-0.196025929 5.07471919,4.5811986 C4.53365618,5.45279463 1.16369103,6.31001263 0.751509002,7.04551965 C-0.73782472,9.70312079 -0.0134973987,11.7245454 2.92449097,13.1097936 L15.2342631,1.45821109 Z" id="path-15"></path>
                                            </g>
                                            <g id="路径-10-Clipped">
                                                <mask id="mask-34" fill="white">
                                                    <use xlink:href="#path-33"></use>
                                                </mask>
                                                <g id="path-15"></g>
                                                <path d="M7.07704812,-2.6527761 C7.06946354,2.21529897 8.68497892,6.18622491 11.9235943,9.26000171 C15.1622096,12.3337785 11.4381812,13.2763529 0.751509002,12.087725 L0.751509002,-2.48243133 L7.07704812,-2.6527761 Z" id="路径-10" fill="#C8F4FD" mask="url(#mask-34)"></path>
                                            </g>
                                        </g>
                                    </g>
                                </g>
                            </g>
                        </g>
                        <g id="路径-6-+-路径-8-+-路径-9蒙版" transform="translate(0.000000, 19.646365)">
                            <path d="M3.90226604,6.39367297 C4.06912679,6.48452351 4.94893798,7.11290645 6.54169962,8.2788218 C5.18405993,10.391097 3.97431954,11.5191579 2.91247845,11.6630046 C1.85063735,11.8068514 0.8798112,11.6365066 0,11.1519703 L0,6.39367297 C2.43464995,6.30282242 3.73540529,6.30282242 3.90226604,6.39367297 Z" id="路径-11" fill="#87BFD9" fill-rule="nonzero"></path>
                            <g id="蒙版" fill="#FFFFFF" fill-rule="nonzero">
                                <path d="M0,0 C0,0 0.559868918,0.0349810457 1.39935488,0.624663318 C2.32088126,1.27197346 4.41302709,3.78276218 4.93756111,7.67693693 C5.18026765,9.47880607 3.53441395,10.640936 0,11.1633266 C0,3.72110887 0,0 0,0 Z" id="path-17"></path>
                            </g>
                            <g id="路径-6-Clipped">
                                <mask id="mask-36" fill="white">
                                    <use xlink:href="#path-35"></use>
                                </mask>
                                <g id="path-17"></g>
                                <path d="M0,-0.374692684 L0,2.68015691 C0.401982701,2.6877278 0.822926852,2.59687725 1.26283245,2.40760528 C1.70273805,2.21833331 2.14643593,1.72244074 2.59392611,0.919927588 L0,-0.374692684 Z" id="路径-6" fill="#D5FBFE" fill-rule="nonzero" mask="url(#mask-36)"></path>
                            </g>
                            <g id="路径-8-Clipped">
                                <mask id="mask-38" fill="white">
                                    <use xlink:href="#path-37"></use>
                                </mask>
                                <g id="path-17"></g>
                                <path d="M0,8.10847702 C0,8.10847702 1.42969319,8.9753426 4.28907958,10.7090739 L0,11.9242 C0,9.38038463 0,8.10847702 0,8.10847702 Z" id="路径-8" fill="#B0E9FE" fill-rule="nonzero" mask="url(#mask-38)"></path>
                            </g>
                            <g id="路径-9-Clipped">
                                <mask id="mask-40" fill="white">
                                    <use xlink:href="#path-39"></use>
                                </mask>
                                <g id="path-17"></g>
                                <polygon id="路径-9" fill="#2E6889" fill-rule="nonzero" mask="url(#mask-40)" points="0 10.2093959 3.45856815 11.2768898 0 11.5153725"></polygon>
                            </g>
                            <g id="编组-2-Clipped">
                                <mask id="mask-42" fill="white">
                                    <use xlink:href="#path-41"></use>
                                </mask>
                                <g id="path-17"></g>
                                <g id="编组-2" mask="url(#mask-42)">
                                    <g transform="translate(0.000000, 5.576018)" id="编组">
                                        <g transform="translate(0.000000, 0.000000)">
                                            <path d="M0,0 C0.116190718,0 0.888880737,0.191932804 2.31807007,0.575798412 C2.7301449,0.685746862 2.97483806,1.10906252 2.86466706,1.52107784 C2.85907879,1.54197673 2.8526148,1.56263157 2.84535047,1.58300866 L2.57638445,2.33123207 C2.48541593,2.58429294 2.30037408,2.79253303 2.05976266,2.91262142 L0,3.94064242 L0,3.94064242 C0,1.96464305 0,0.651095578 0,0 Z" id="路径-4" fill="#08273B" fill-rule="nonzero"></path>
                                            <path d="M0,0.76087332 C0.0606766342,0.76087332 0.769834796,0.938788973 2.12747449,1.29462027 L0,2.53245896 C0,1.82079636 0,1.23026781 0,0.76087332 Z" id="路径-5" fill="#224A66" fill-rule="nonzero"></path>
                                            <circle id="椭圆形" fill="#03121F" fill-rule="nonzero" cx="1.36522427" cy="2.57788424" r="1"></circle>
                                        </g>
                                    </g>
                                </g>
                            </g>
                        </g>
                        <g id="编组" transform="translate(0.000000, -0.000000)">
                            <path d="M0,6.26868765 L3.847615,6.26868765 C4.01642465,6.26868765 4.18109658,6.3209366 4.3190257,6.4182621 L4.76690808,6.7342967 L4.76690808,6.7342967" id="路径-12" stroke="#FFFFFF" stroke-width="0.6"></path>
                            <path d="M3.39922864,7.76659933 C3.1945913,7.53918818 4.03357431,6.66106737 4.42241536,6.12923903 C6.94444673,2.67978908 8.79130412,0.661595957 9.69751135,0.0573612835 C10.7348816,-0.634329396 11.9030472,5.08314774 12.2213719,8.92639617 C12.393992,11.0105012 11.4092747,12.6360115 11.0844978,13.1107614 C10.7889105,13.5428426 8.1741,11.6325889 7.05996335,10.5864976 C6.53273239,10.091467 5.68864687,9.61189545 4.96811495,9.085584 C4.16602949,8.49970191 3.50702764,7.88639513 3.39922864,7.76659933 Z" id="路径" fill="#A54C00" fill-rule="nonzero"></path>
                            <path d="M9.71584605,1.499034 C8.50318561,3.07985093 7.60820524,4.21548276 7.03090499,4.90592947 C6.45360473,5.59637618 5.72548512,6.5200234 4.84654616,7.67687111 C5.19266427,8.1341744 5.4732937,8.48243482 5.68843446,8.72165238 C5.90357521,8.96086994 6.22212754,9.27884686 6.64409144,9.67558314 C7.00365562,9.59258414 7.2691159,9.5244463 7.44047227,9.47116942 C7.61182864,9.41789254 7.8090277,9.34218368 8.03206945,9.24404302 C8.24236291,9.5070822 8.40922365,9.69635417 8.53265169,9.81185892 C8.65607972,9.92736367 8.98980124,10.1582755 9.53381615,10.5045944 C9.98130634,9.11912349 10.2429743,7.81314693 10.3188201,6.58666456 C10.3946659,5.3601822 10.1936746,3.66430534 9.71584605,1.499034 Z" id="路径-2" fill="#803100" fill-rule="nonzero"></path>
                            <path d="M3.37957104,7.593138 C3.47400776,7.2429264 4.10150847,6.568152 4.42241536,6.12923903 C6.94444673,2.67978908 8.79130412,0.661595957 9.69751135,0.0573612835 C10.7348816,-0.634329396 11.9030472,5.08314774 12.2213719,8.92639617 C12.393992,11.0105012 11.4092747,12.6360115 11.0844978,13.1107614 L11.0469397,13.1619728" id="路径" stroke="#FFFFFF" stroke-width="0.6"></path>
                        </g>
                        <g id="编组-3" transform="translate(2.923855, 18.113328)">
                            <g id="路径-3" fill="#050F1A" fill-rule="nonzero">
                                <path d="M0,1.83972355 C0.508166811,2.83907956 0.955656992,3.36904107 1.34247053,3.4296081 C1.72928408,3.49017513 2.77595601,3.07377679 4.48248636,2.1804131 L5.57466577,0.726804366 C5.40854627,0.596365032 5.287193,0.490372728 5.21060596,0.408827455 C5.13401893,0.327282184 5.02783482,0.191006365 4.89205363,0 C3.68600158,0.339777876 2.80998268,0.612329512 2.26399692,0.817654911 C1.71801116,1.02298031 0.963345512,1.36366986 0,1.83972355 Z" id="path-19"></path>
                            </g>
                            <g id="蒙版-+-路径-14蒙版-Clipped">
                                <mask id="mask-44" fill="white">
                                    <use xlink:href="#path-43"></use>
                                </mask>
                                <g id="path-19"></g>
                                <g id="蒙版-+-路径-14蒙版" mask="url(#mask-44)">
                                    <g transform="translate(2.013706, 0.430036)" id="编组">
                                        <g transform="translate(0.000000, 0.000000)">
                                            <g id="蒙版" fill="#092338">
                                                <path d="M0,0.171848595 C0.151691585,1.26962602 0.409567281,1.96614687 0.773627086,2.26141115 C1.12071236,2.54290852 1.64014253,2.33927123 2.33191759,1.65049924 C2.39546126,1.58913225 2.41593137,1.49611071 2.38496503,1.41339139 L1.95471219,0.265369952 C1.88904429,0.0901516873 1.7127994,-0.0181186798 1.52682027,0.00250834143 L0,0.171848595 L0,0.171848595 Z" id="path-21"></path>
                                            </g>
                                            <g id="蒙版-Clipped">
                                                <mask id="mask-46" fill="white">
                                                    <use xlink:href="#path-45"></use>
                                                </mask>
                                                <g id="path-21"></g>
                                                <path d="M1.60413852,-0.43003627 L1.35513075,1.17178178 C1.31754847,1.41354116 1.36600356,1.66082275 1.49204905,1.87051909 L2.0137058,2.73837651 L2.0137058,2.73837651 L3.19690017,1.73902051 L1.60413852,-0.43003627 Z" id="蒙版" fill="#113147" mask="url(#mask-46)"></path>
                                            </g>
                                            <g id="路径-14-Clipped">
                                                <mask id="mask-48" fill="white">
                                                    <use xlink:href="#path-47"></use>
                                                </mask>
                                                <g id="path-21"></g>
                                                <path d="M1.21732497,-0.520886816 C1.21732497,-0.461916768 1.24248957,0.192735709 1.29281876,1.44307062 L1.29291439,1.44306478 C1.29597401,1.49314677 1.33905379,1.53126594 1.38913579,1.52820633 C1.39327591,1.5279534 1.39739386,1.52741724 1.40146072,1.52660161 C1.61518008,1.48603963 1.78891228,1.443227 1.92269084,1.39833096 C2.07765607,1.3463247 2.30898574,1.24790327 2.61667985,1.10306669 L1.92269084,-0.62309368 C1.45244693,-0.615522801 1.21732497,-0.581453847 1.21732497,-0.520886816 Z" id="路径-14" fill="#365E77" mask="url(#mask-48)"></path>
                                            </g>
                                        </g>
                                    </g>
                                </g>
                            </g>
                            <g id="椭圆形-Clipped">
                                <mask id="mask-50" fill="white">
                                    <use xlink:href="#path-49"></use>
                                </mask>
                                <g id="path-19"></g>
                                <circle id="椭圆形" fill="#FFFFFF" fill-rule="nonzero" mask="url(#mask-50)" transform="translate(2.787333, 1.215126) rotate(30.000000) translate(-2.787333, -1.215126) " cx="2.78733279" cy="1.21512607" r="1"></circle>
                            </g>
                        </g>
                    </g>
                    <g id="路径-7" transform="translate(17.038683, 7.325705)">
                        <g id="蒙版" fill="url(#linearGradient-51)" fill-rule="nonzero">
                            <path d="M11.0810704,6.90464147 C11.7694989,7.25183862 12.3117962,8.19819848 12.7079626,9.74372098 C13.0528672,11.0892614 13.3360695,12.5627584 13.5575697,14.164212 L13.558048,14.1641461 C13.6245678,14.6470577 13.5685899,15.1389436 13.3952631,15.5945601 C12.4935912,17.9588028 11.2898018,19.9089495 9.78410727,21.4450809 C8.27679805,22.9828597 6.29990136,24.5269249 3.85341721,26.0772764 C3.38909635,26.3718862 2.85054794,26.5283593 2.30064954,26.5283593 L0,26.5283593 L0,26.5283593 L0,0 L3.80371536,0 C4.01984964,0 4.22719216,0.085575012 4.38041079,0.238015422 L11.0810704,6.90464147 L11.0810704,6.90464147 Z" id="path-24"></path>
                        </g>
                        <g id="编组-7-Clipped">
                            <mask id="mask-53" fill="white">
                                <use xlink:href="#path-52"></use>
                            </mask>
                            <g id="path-24"></g>
                            <g id="编组-7" mask="url(#mask-53)">
                                <g transform="translate(0.000000, 6.643446)" id="编组">
                                    <g transform="translate(0.000000, 0.000000)">
                                        <g id="蒙版" fill="url(#linearGradient-54)">
                                            <path d="M1.57000791,8.83521558 C1.7193748,7.49218606 1.90519699,6.47390286 2.12747449,5.78036597 C2.34975199,5.08682908 2.76690385,4.22374889 3.37893007,3.19112542 C5.47137067,2.75034419 7.01104025,2.35665849 7.99793884,2.01006832 C8.9848374,1.66347815 10.183201,0.993455385 11.5930295,0 L13.6522427,0.806298593 L14.323478,8.83521558 L7.13329681,19.9303384 L0,19.9303384 L1.57000791,8.83521558 Z" id="path-27"></path>
                                        </g>
                                        <g id="编组-7-Clipped">
                                            <mask id="mask-56" fill="white">
                                                <use xlink:href="#path-55"></use>
                                            </mask>
                                            <g id="path-27"></g>
                                            <g id="编组-7" mask="url(#mask-56)">
                                                <g transform="translate(1.365224, -0.227127)" id="编组">
                                                    <g transform="translate(0.000000, -0.000000)">
                                                        <line x1="8.16859188" y1="0" x2="7.69076339" y2="3.69080341" id="路径-16" stroke="#8BF2FF" stroke-width="0.6"></line>
                                                        <circle id="椭圆形" stroke="#8BF2FF" stroke-width="0.6" cx="8.73743528" cy="5.03084897" r="1"></circle>
                                                        <circle id="椭圆形" stroke="#8BF2FF" stroke-width="0.6" cx="10.3301969" cy="7.93806643" r="1"></circle>
                                                        <circle id="椭圆形" stroke="#8BF2FF" stroke-width="0.6" cx="6.59858397" cy="9.2099741" r="1"></circle>
                                                        <line x1="8.75563833" y1="5.42832011" x2="8.75563833" y2="7.40431948" id="路径-18" stroke="#8BF2FF" stroke-width="0.6"></line>
                                                        <line x1="10.2619357" y1="8.30146861" x2="8.15721501" y2="10.8566402" id="路径-19" stroke="#8BF2FF" stroke-width="0.6"></line>
                                                        <line x1="9.42004748" y1="6.64344615" x2="10.1709208" y2="7.62008952" id="路径-20" stroke="#8BF2FF" stroke-width="0.6"></line>
                                                        <line x1="1.11493316" y1="9.64151412" x2="6.23452417" y2="9.27811195" id="路径-22" stroke="#8BF2FF" stroke-width="0.6"></line>
                                                        <polyline id="路径-23" stroke="#8BF2FF" stroke-width="0.6" points="6.43930781 4.66744679 4.34596393 3.87250451 1.47524519e-17 6.32546924"></polyline>
                                                        <line x1="7.92967763" y1="2.4302521" x2="11.7864362" y2="2.97535537" id="路径-17" stroke="#8BF2FF" stroke-width="0.6"></line>
                                                    </g>
                                                </g>
                                            </g>
                                        </g>
                                    </g>
                                </g>
                            </g>
                        </g>
                        <g id="路径-10-Clipped">
                            <mask id="mask-58" fill="white">
                                <use xlink:href="#path-57"></use>
                            </mask>
                            <g id="path-24"></g>
                            <g id="路径-10" mask="url(#mask-58)">
                                <g transform="translate(-0.751509, 15.848818)" id="编组">
                                    <g transform="translate(0.000000, 0.000000)">
                                        <g id="蒙版" fill="#FFFFFF">
                                            <path d="M15.2342631,1.45821109 C11.4268043,-1.23702177 8.04028969,-0.196025929 5.07471919,4.5811986 C4.53365618,5.45279463 1.16369103,6.31001263 0.751509002,7.04551965 C-0.73782472,9.70312079 -0.0134973987,11.7245454 2.92449097,13.1097936 L15.2342631,1.45821109 Z" id="path-29"></path>
                                        </g>
                                        <g id="路径-10-Clipped">
                                            <mask id="mask-60" fill="white">
                                                <use xlink:href="#path-59"></use>
                                            </mask>
                                            <g id="path-29"></g>
                                            <path d="M7.07704812,-2.6527761 C7.06946354,2.21529897 8.68497892,6.18622491 11.9235943,9.26000171 C15.1622096,12.3337785 11.4381812,13.2763529 0.751509002,12.087725 L0.751509002,-2.48243133 L7.07704812,-2.6527761 Z" id="路径-10" fill="#C8F4FD" mask="url(#mask-60)"></path>
                                        </g>
                                    </g>
                                </g>
                            </g>
                        </g>
                    </g>
                    <g id="路径-6-+-路径-8-+-路径-9蒙版" transform="translate(17.038683, 20.703382)">
                        <path d="M3.90226604,6.39367297 C4.06912679,6.48452351 4.94893798,7.11290645 6.54169962,8.2788218 C5.18405993,10.391097 3.97431954,11.5191579 2.91247845,11.6630046 C1.85063735,11.8068514 0.8798112,11.6365066 0,11.1519703 L0,6.39367297 C2.43464995,6.30282242 3.73540529,6.30282242 3.90226604,6.39367297 Z" id="路径-11" fill="#87BFD9" fill-rule="nonzero"></path>
                        <g id="蒙版" fill="#FFFFFF" fill-rule="nonzero">
                            <path d="M0,0 C0,0 0.559868918,0.0349810457 1.39935488,0.624663318 C2.32088126,1.27197346 4.41302709,3.78276218 4.93756111,7.67693693 C5.18026765,9.47880607 3.53441395,10.640936 0,11.1633266 C0,3.72110887 0,0 0,0 Z" id="path-31"></path>
                        </g>
                        <g id="路径-6-Clipped">
                            <mask id="mask-62" fill="white">
                                <use xlink:href="#path-61"></use>
                            </mask>
                            <g id="path-31"></g>
                            <path d="M0,-0.374692684 L0,2.68015691 C0.401982701,2.6877278 0.822926852,2.59687725 1.26283245,2.40760528 C1.70273805,2.21833331 2.14643593,1.72244074 2.59392611,0.919927588 L0,-0.374692684 Z" id="路径-6" fill="#D5FBFE" fill-rule="nonzero" mask="url(#mask-62)"></path>
                        </g>
                        <g id="路径-8-Clipped">
                            <mask id="mask-64" fill="white">
                                <use xlink:href="#path-63"></use>
                            </mask>
                            <g id="path-31"></g>
                            <path d="M0,8.10847702 C0,8.10847702 1.42969319,8.9753426 4.28907958,10.7090739 L0,11.9242 C0,9.38038463 0,8.10847702 0,8.10847702 Z" id="路径-8" fill="#B0E9FE" fill-rule="nonzero" mask="url(#mask-64)"></path>
                        </g>
                        <g id="路径-9-Clipped">
                            <mask id="mask-66" fill="white">
                                <use xlink:href="#path-65"></use>
                            </mask>
                            <g id="path-31"></g>
                            <polygon id="路径-9" fill="#2E6889" fill-rule="nonzero" mask="url(#mask-66)" points="0 10.2093959 3.45856815 11.2768898 0 11.5153725"></polygon>
                        </g>
                        <g id="编组-2-Clipped">
                            <mask id="mask-68" fill="white">
                                <use xlink:href="#path-67"></use>
                            </mask>
                            <g id="path-31"></g>
                            <g id="编组-2" mask="url(#mask-68)">
                                <g transform="translate(0.000000, 5.576018)" id="编组">
                                    <g transform="translate(0.000000, 0.000000)">
                                        <path d="M0,0 C0.116190718,0 0.888880737,0.191932804 2.31807007,0.575798412 C2.7301449,0.685746862 2.97483806,1.10906252 2.86466706,1.52107784 C2.85907879,1.54197673 2.8526148,1.56263157 2.84535047,1.58300866 L2.57638445,2.33123207 C2.48541593,2.58429294 2.30037408,2.79253303 2.05976266,2.91262142 L0,3.94064242 L0,3.94064242 C0,1.96464305 0,0.651095578 0,0 Z" id="路径-4" fill="#08273B" fill-rule="nonzero"></path>
                                        <path d="M4.85025094e-16,0.76087332 C0.0606766342,0.76087332 0.769834796,0.938788973 2.12747449,1.29462027 L4.85025094e-16,2.53245896 C4.85025094e-16,1.82079636 4.85025094e-16,1.23026781 4.85025094e-16,0.76087332 Z" id="路径-5" fill="#224A66" fill-rule="nonzero"></path>
                                        <circle id="椭圆形" fill="#03121F" fill-rule="nonzero" cx="1.36522427" cy="2.57788424" r="1"></circle>
                                    </g>
                                </g>
                            </g>
                        </g>
                    </g>
                    <g id="编组" transform="translate(17.038683, 1.057017)">
                        <path d="M0,6.26868765 L3.847615,6.26868765 C4.01642465,6.26868765 4.18109658,6.3209366 4.3190257,6.4182621 L4.76690808,6.7342967 L4.76690808,6.7342967" id="路径-12" stroke="#FFFFFF" stroke-width="0.6"></path>
                        <path d="M3.39922864,7.76659933 C3.1945913,7.53918818 4.03357431,6.66106737 4.42241536,6.12923903 C6.94444673,2.67978908 8.79130412,0.661595957 9.69751135,0.0573612835 C10.7348816,-0.634329396 11.9030472,5.08314774 12.2213719,8.92639617 C12.393992,11.0105012 11.4092747,12.6360115 11.0844978,13.1107614 C10.7889105,13.5428426 8.1741,11.6325889 7.05996335,10.5864976 C6.53273239,10.091467 5.68864687,9.61189545 4.96811495,9.085584 C4.16602949,8.49970191 3.50702764,7.88639513 3.39922864,7.76659933 Z" id="路径" fill="url(#linearGradient-69)" fill-rule="nonzero"></path>
                        <g id="路径-13" transform="translate(4.846546, 1.499034)">
                            <g id="蒙版" fill="url(#linearGradient-70)" fill-rule="nonzero">
                                <path d="M4.8692999,0 C3.65663944,1.58081693 2.76165909,2.71644876 2.18435883,3.40689547 C1.60705857,4.09734217 0.878938965,5.02098939 0,6.1778371 C0.346118112,6.63514039 0.626747545,6.98340082 0.8418883,7.22261838 C1.05702905,7.46183595 1.37558139,7.77981286 1.79754529,8.17654911 C2.15710946,8.09355018 2.42256974,8.02541227 2.59392611,7.97213539 C2.76528249,7.9188585 2.96248155,7.84314971 3.1855233,7.74500902 C3.39581675,8.0080482 3.5626775,8.19732018 3.68610553,8.31282493 C3.80953356,8.42832969 4.14325504,8.65924149 4.68726999,9.00556038 C5.13476017,7.62008952 5.39642816,6.31411292 5.47227395,5.08763056 C5.54811974,3.86114819 5.34712839,2.16527134 4.8692999,0 Z" id="path-35"></path>
                            </g>
                            <g id="Clipped">
                                <mask id="mask-72" fill="white">
                                    <use xlink:href="#path-71"></use>
                                </mask>
                                <g id="path-35"></g>
                                <polygon id="路径" fill="#113D67" fill-rule="nonzero" mask="url(#mask-72)" points="0.0910149515 6.93871043 3.28791512 6.93871043 5.24473657 8.08569857 4.82379242 9.48252567 0.864642037 7.82450325"></polygon>
                            </g>
                            <g id="路径-15-Clipped">
                                <mask id="mask-74" fill="white">
                                    <use xlink:href="#path-73"></use>
                                </mask>
                                <g id="path-35"></g>
                                <path d="M0.693989004,4.23590669 C0.807757693,4.23590669 1.793753,4.1791251 3.65197492,4.06556192 L0.864642037,7.59737689 L-0.443697888,6.0529176 C0.200991351,4.841577 0.580220315,4.23590669 0.693989004,4.23590669 Z" id="路径-15" fill="url(#linearGradient-75)" fill-rule="nonzero" mask="url(#mask-74)"></path>
                            </g>
                        </g>
                        <path d="M3.37957104,7.593138 C3.47400776,7.2429264 4.10150847,6.568152 4.42241536,6.12923903 C6.94444673,2.67978908 8.79130412,0.661595957 9.69751135,0.0573612835 C10.7348816,-0.634329396 11.9030472,5.08314774 12.2213719,8.92639617 C12.393992,11.0105012 11.4092747,12.6360115 11.0844978,13.1107614 L11.0469397,13.1619728" id="路径" stroke="#FFFFFF" stroke-width="0.6"></path>
                    </g>
                    <g id="编组-3" transform="translate(19.962538, 19.170345)">
                        <g id="路径-3" fill="#050F1A" fill-rule="nonzero">
                            <path d="M0,1.83972355 C0.508166811,2.83907956 0.955656992,3.36904107 1.34247053,3.4296081 C1.72928408,3.49017513 2.77595601,3.07377679 4.48248636,2.1804131 L5.57466577,0.726804366 C5.40854627,0.596365032 5.287193,0.490372728 5.21060596,0.408827455 C5.13401893,0.327282184 5.02783482,0.191006365 4.89205363,0 C3.68600158,0.339777876 2.80998268,0.612329512 2.26399692,0.817654911 C1.71801116,1.02298031 0.963345512,1.36366986 0,1.83972355 Z" id="path-38"></path>
                        </g>
                        <g id="蒙版-+-路径-14蒙版-Clipped">
                            <mask id="mask-77" fill="white">
                                <use xlink:href="#path-76"></use>
                            </mask>
                            <g id="path-38"></g>
                            <g id="蒙版-+-路径-14蒙版" mask="url(#mask-77)">
                                <g transform="translate(2.013706, 0.430036)" id="编组">
                                    <g transform="translate(0.000000, 0.000000)">
                                        <g id="蒙版" fill="#092338">
                                            <path d="M0,0.171848595 C0.151691585,1.26962602 0.409567281,1.96614687 0.773627086,2.26141115 C1.12071236,2.54290852 1.64014253,2.33927123 2.33191759,1.65049924 C2.39546126,1.58913225 2.41593137,1.49611071 2.38496503,1.41339139 L1.95471219,0.265369952 C1.88904429,0.0901516873 1.7127994,-0.0181186798 1.52682027,0.00250834143 L0,0.171848595 L0,0.171848595 Z" id="path-40"></path>
                                        </g>
                                        <g id="蒙版-Clipped">
                                            <mask id="mask-79" fill="white">
                                                <use xlink:href="#path-78"></use>
                                            </mask>
                                            <g id="path-40"></g>
                                            <path d="M1.60413852,-0.43003627 L1.35513075,1.17178178 C1.31754847,1.41354116 1.36600356,1.66082275 1.49204905,1.87051909 L2.0137058,2.73837651 L2.0137058,2.73837651 L3.19690017,1.73902051 L1.60413852,-0.43003627 Z" id="蒙版" fill="#113147" mask="url(#mask-79)"></path>
                                        </g>
                                        <g id="路径-14-Clipped">
                                            <mask id="mask-81" fill="white">
                                                <use xlink:href="#path-80"></use>
                                            </mask>
                                            <g id="path-40"></g>
                                            <path d="M1.21732497,-0.520886816 C1.21732497,-0.461916768 1.24248957,0.192735709 1.29281876,1.44307062 L1.29291439,1.44306478 C1.29597401,1.49314677 1.33905379,1.53126594 1.38913579,1.52820633 C1.39327591,1.5279534 1.39739386,1.52741724 1.40146072,1.52660161 C1.61518008,1.48603963 1.78891228,1.443227 1.92269084,1.39833096 C2.07765607,1.3463247 2.30898574,1.24790327 2.61667985,1.10306669 L1.92269084,-0.62309368 C1.45244693,-0.615522801 1.21732497,-0.581453847 1.21732497,-0.520886816 Z" id="路径-14" fill="#365E77" mask="url(#mask-81)"></path>
                                        </g>
                                    </g>
                                </g>
                            </g>
                        </g>
                        <g id="椭圆形-Clipped">
                            <mask id="mask-83" fill="white">
                                <use xlink:href="#path-82"></use>
                            </mask>
                            <g id="path-38"></g>
                            <g id="椭圆形" mask="url(#mask-83)">
                                <g transform="translate(2.787333, 1.215126) rotate(30.000000) translate(-2.787333, -1.215126) translate(1.916682, 0.344475)" id="path-42-link">
                                    <g>
                                        <circle id="path-42" fill="#000000" fill-rule="nonzero" cx="0.870651063" cy="0.870651063" r="1"></circle>
                                    </g>
                                    <g>
                                        <circle id="path-42" fill="#8BF2FF" cx="0.870651063" cy="0.870651063" r="1"></circle>
                                    </g>
                                </g>
                            </g>
                        </g>
                    </g>
                </g>
            </g>
        </g>
    </g>
</svg>