<?xml version="1.0" encoding="UTF-8"?>
<svg width="16px" height="16px" viewBox="0 0 16 16" version="1.1" xmlns="http://www.w3.org/2000/svg" xmlns:xlink="http://www.w3.org/1999/xlink">
    <title>编组 3</title>
    <g id="OKBOX" stroke="none" stroke-width="1" fill="none" fill-rule="evenodd">
        <g id="GPT弹窗" transform="translate(-275.000000, -188.000000)">
            <g id="编组-3" transform="translate(275.000000, 188.000000)">
                <rect id="矩形" stroke="#979797" fill="#D8D8D8" opacity="0" x="0.5" y="0.5" width="15" height="15"></rect>
                <g id="arbitrum_logo.700dd1fb" transform="translate(1.000000, 0.000000)" fill-rule="nonzero">
                    <g id="编组">
                        <path d="M0.536715075,4.8631622 L0.536715075,11.1368378 C0.536715075,11.5361015 0.749437513,11.9059112 1.09633872,12.1055431 L6.52894252,15.2407445 C6.87584373,15.4403764 7.30128861,15.4403764 7.64818981,15.2407445 L13.0807936,12.1055431 C13.4276948,11.9059112 13.6404173,11.5361015 13.6404173,11.1368378 L13.6404173,4.8631622 C13.6404173,4.46389855 13.4276948,4.09408877 13.0807936,3.89445694 L7.64818981,0.759255471 C7.30128861,0.559623645 6.87584373,0.559623645 6.52894252,0.759255471 L1.09633872,3.89445694 C0.752710166,4.09408877 0.536715075,4.46389855 0.536715075,4.8631622 Z" id="路径" fill="#213147"></path>
                        <g transform="translate(7.483739, 5.553692)" fill="#12AAFF" id="路径">
                            <path d="M0.792800164,3.66209859 L0.0171814277,5.78605032 C-0.00572714256,5.84495807 -0.00572714256,5.91041113 0.0171814277,5.96931888 L1.34915116,9.62487216 L2.89057067,8.73471057 L1.04152178,3.66209859 C0.998977296,3.54428308 0.835344651,3.54428308 0.792800164,3.66209859 Z"></path>
                            <path d="M2.34403764,0.0883616281 C2.30149315,-0.029453876 2.1378605,-0.029453876 2.09531602,0.0883616281 L1.31969728,2.21231336 C1.29678871,2.27122111 1.29678871,2.33667417 1.31969728,2.39558192 L3.50255676,8.38126406 L5.04397627,7.49110247 L2.34403764,0.0883616281 Z"></path>
                        </g>
                        <path d="M7.08856617,0.991613827 C7.127838,0.991613827 7.16383719,1.00143179 7.19983637,1.0210677 L13.077521,4.41480875 C13.1462467,4.45408059 13.1887912,4.52607895 13.1887912,4.60462262 L13.1887912,11.3921047 C13.1887912,11.4706484 13.1462467,11.5426468 13.077521,11.5819186 L7.19983637,14.9789323 C7.16710984,14.9985682 7.127838,15.0083862 7.08856617,15.0083862 C7.04929433,15.0083862 7.01329515,14.9985682 6.97729597,14.9789323 L1.10288403,11.5851912 C1.03415831,11.5459194 0.991613827,11.473921 0.991613827,11.3953774 L0.991613827,4.60462262 C0.991613827,4.52607895 1.03415831,4.45408059 1.10288403,4.41480875 L6.98056862,1.0210677 C7.01329515,1.00143179 7.05256699,0.991613827 7.08856617,0.991613827 M7.08856617,0 C6.87911638,0 6.6696666,0.0556350992 6.48312538,0.163632645 L0.605440785,3.5573737 C0.232358355,3.77336879 0,4.17263244 0,4.60462262 L0,11.3921047 C0,11.8240949 0.232358355,12.2266312 0.605440785,12.4426263 L6.48312538,15.8363674 C6.6696666,15.9443649 6.87911638,16 7.08856617,16 C7.29801595,16 7.50746574,15.9443649 7.69400695,15.8363674 L13.5716916,12.4426263 C13.9480466,12.2266312 14.1771323,11.8273676 14.1771323,11.3921047 L14.1771323,4.60462262 C14.1771323,4.17263244 13.944774,3.77009613 13.5716916,3.55410104 L7.69727961,0.163632645 C7.50746574,0.0556350992 7.29801595,0 7.08856617,0 L7.08856617,0 Z" id="形状" fill="#9DCCED"></path>
                        <polygon id="路径" fill="#213147" points="3.20392718 13.9415013 3.74391491 12.4622622 4.83043567 13.3655144 3.81591327 14.2949478"></polygon>
                        <g transform="translate(1.662508, 4.120270)" fill="#FFFFFF" id="路径">
                            <path d="M4.93188791,-9.30143896e-16 L3.44283084,-9.30143896e-16 C3.33156065,-9.30143896e-16 3.23010841,0.0687257108 3.19410922,0.173450603 L-4.65071948e-16,8.93106975 L1.54141951,9.82123134 L5.05952137,0.176723256 C5.08897525,0.091634281 5.02679485,-9.30143896e-16 4.93188791,-9.30143896e-16 Z"></path>
                            <path d="M7.54019227,-9.30143896e-16 L6.0511352,-9.30143896e-16 C5.939865,-9.30143896e-16 5.83841276,0.0687257108 5.80241358,0.173450603 L2.1534056,10.1746778 L3.69482512,11.0648394 L7.66455308,0.179995909 C7.69727961,0.091634281 7.63182655,-9.30143896e-16 7.54019227,-9.30143896e-16 Z"></path>
                        </g>
                    </g>
                </g>
            </g>
        </g>
    </g>
</svg>