<?xml version="1.0" encoding="UTF-8"?>
<svg width="20px" height="20px" viewBox="0 0 20 20" version="1.1" xmlns="http://www.w3.org/2000/svg" xmlns:xlink="http://www.w3.org/1999/xlink">
    <title>盲盒</title>
    <g id="OKBOX" stroke="none" stroke-width="1" fill="none" fill-rule="evenodd">
        <g id="okx-app-首页" transform="translate(-122.000000, -1278.000000)">
            <g id="编组-36" transform="translate(16.000000, 1268.000000)">
                <g id="盲盒" transform="translate(106.000000, 10.000000)">
                    <polygon id="路径" points="0 0 20 0 20 20 0 20"></polygon>
                    <path d="M9.375,10.8333333 L2.70833333,6.98333333 C2.64148373,7.20231115 2.60503189,7.42943416 2.6,7.65833333 L2.6,12.3666667 C2.69237754,13.4134796 3.27299232,14.3554345 4.16666667,14.9083333 L8.61666667,17.4083333 C8.87982009,17.5343233 9.16095082,17.6186625 9.45,17.6583333 L9.375,10.8333333 Z" id="路径"></path>
                    <path d="M10,9.73333333 L16.7166667,5.83333333 C16.4947164,5.52305793 16.2109971,5.26203618 15.8833333,5.06666667 L11.4333333,2.56666667 C10.9845477,2.36130238 10.4929235,2.26697915 10,2.29166667 C9.50637006,2.28032048 9.0173652,2.38898823 8.575,2.60833333 L4.16666667,5.08333333 L4.16666667,5.08333333 C3.84061531,5.27384178 3.55701563,5.52908149 3.33333333,5.83333333 L10,9.73333333 Z" id="路径"></path>
                    <path d="M10.625,10.8333333 L10.625,17.6583333 C10.9155202,17.6205714 11.1973959,17.5331899 11.4583333,17.4 L15.9083333,14.9 C16.7842184,14.3306872 17.3425498,13.3836832 17.4166667,12.3416667 L17.4166667,7.64166667 C17.412611,7.4126799 17.3761376,7.18542218 17.3083333,6.96666667 L10.625,10.8333333 Z" id="路径"></path>
                    <path d="M16.4833333,3.98333333 L12.0333333,1.48333333 C10.7536707,0.854338917 9.25466267,0.854338917 7.975,1.48333333 L3.525,3.98333333 C2.24664604,4.77258655 1.43928108,6.14105458 1.36666667,7.64166667 L1.36666667,12.35 C1.43928108,13.8506121 2.24664604,15.2190801 3.525,16.0083333 L7.975,18.5083333 C8.602272,18.8255167 9.29717583,18.9856591 10,18.975 C10.7055973,18.9866796 11.4034426,18.8265184 12.0333333,18.5083333 L16.4833333,16.0083333 C17.7616873,15.2190801 18.5690523,13.8506121 18.6416667,12.35 L18.6416667,7.64166667 C18.5690523,6.14105458 17.7616873,4.77258655 16.4833333,3.98333333 Z M4.16666667,5.08333333 L4.16666667,5.08333333 L8.625,2.58333333 C9.05437437,2.38038512 9.52520965,2.28051097 10,2.29166667 C10.4935321,2.2813119 10.9823035,2.38992776 11.425,2.60833333 L15.875,5.10833333 C16.2026637,5.30370284 16.486383,5.56472459 16.7083333,5.875 L10,9.73333333 L3.33333333,5.83333333 C3.55701563,5.52908149 3.84061531,5.27384178 4.16666667,5.08333333 Z M4.16666667,14.9083333 C3.29078158,14.3390205 2.73245023,13.3920165 2.65833333,12.35 L2.65833333,7.64166667 C2.66336523,7.41276749 2.69981707,7.18564448 2.76666667,6.96666667 L9.43333333,10.8166667 L9.43333333,17.6416667 C9.14428415,17.6019959 8.86315343,17.5176566 8.6,17.3916667 L4.16666667,14.9083333 Z M17.4333333,12.35 C17.3592164,13.3920165 16.8008851,14.3390205 15.925,14.9083333 L11.475,17.4083333 C11.2140625,17.5415233 10.9321868,17.6289047 10.6416667,17.6666667 L10.6416667,10.8333333 L17.3083333,6.98333333 C17.3761376,7.20208885 17.412611,7.42934656 17.4166667,7.65833333 L17.4333333,12.35 Z" id="形状" fill="#FFFFFF" fill-rule="nonzero"></path>
                    <polygon id="路径" points="0 20 0 0 20 0 20 20"></polygon>
                </g>
            </g>
        </g>
    </g>
</svg>