<?xml version="1.0" encoding="UTF-8"?>
<svg width="55px" height="54px" viewBox="0 0 55 54" version="1.1" xmlns="http://www.w3.org/2000/svg" xmlns:xlink="http://www.w3.org/1999/xlink">
    <title>LOGO 插画-05</title>
    <g id="OKBOX" stroke="none" stroke-width="1" fill="none" fill-rule="evenodd">
        <g id="OKBOX首页" transform="translate(-521.000000, -2586.000000)">
            <g id="编组-20" transform="translate(384.000000, 1631.000000)">
                <g id="编组-19" transform="translate(85.000000, 850.000000)">
                    <g id="LOGO-插画-05" transform="translate(53.000000, 106.000000)">
                        <path d="M37.7113524,4.44532215 L31.5981368,1.35635479 C31.1479859,1.05814132 30.6663687,0.812530041 30.1623724,0.624155116 L30.1623724,0.624155116 C26.9431194,-0.622872449 22.8265136,-0.0165195964 18.3509668,2.58050111 C8.18844681,8.63258902 -0.0335478023,23.2880231 0,35.3121145 C0.0113198354,41.1697119 1.96306208,45.2768945 5.18231508,47.3247654 L5.18231508,47.3247654 L5.24961654,47.3247654 C5.70571899,47.6050564 6.181922,47.8498188 6.67416404,48.0569651 L13.0229348,51.3175417 L14.8288572,47.8853558 C16.1171693,47.4116728 17.360009,46.8180711 18.5416542,46.1120597 C28.7041742,40.0714124 36.9261688,25.4045377 36.8925181,13.3804463 C36.9035507,11.4141114 36.6352993,9.45651254 36.0961175,7.56861137 L37.7113524,4.44532215 Z" id="路径" stroke="#FFFFFF" stroke-width="0.57" fill="#000000" fill-rule="nonzero" stroke-linecap="round" stroke-linejoin="round"></path>
                        <path d="M24.7333882,5.85251839 C34.9071251,-0.188128894 43.1739873,4.70845641 43.207741,16.698226 C43.2412888,28.6879956 35.0192942,43.4578359 24.8567742,49.4298395 C14.6942543,55.401843 6.40495821,50.6311045 6.38247853,38.5955725 C6.36009057,26.5600404 14.5708683,11.8931657 24.7333882,5.85251839 Z" id="路径" stroke="#FFFFFF" stroke-width="0.57" fill="#DBDBDB" fill-rule="nonzero" stroke-linecap="round" stroke-linejoin="round"></path>
                        <path d="M17.1058898,47.336206 C13.0565855,47.336206 10.6337331,43.8010545 10.6112993,37.8976946 C10.6112993,27.8185085 17.7676875,15.0164549 26.3149725,9.97114155 C28.1680932,8.78546343 30.2882531,8.1040374 32.4730557,7.99191431 C36.52236,7.99191431 38.9452125,11.5041846 38.9564294,17.4189851 C38.9564294,27.4981712 31.8112581,40.3002248 23.2527562,45.3569788 C21.4041861,46.5436031 19.2873831,47.2251917 17.1058898,47.336206 Z" id="路径" stroke="#FFFFFF" stroke-width="0.57" fill="#FFFFFF" fill-rule="nonzero" stroke-linecap="round" stroke-linejoin="round"></path>
                        <path d="M46.1240345,28.9854518 L43.4319763,27.6125774 C43.2280676,27.4876475 43.0141877,27.3804883 42.7926124,27.29224 L42.7926124,27.29224 C41.0146378,26.7609565 39.096365,27.0807336 37.5767495,28.1617271 C32.7621902,31.3945708 29.7460663,36.7738077 29.4557071,42.6455519 C29.4557071,45.231132 30.3194091,47.0616312 31.699089,47.9654401 L31.699089,47.9654401 L31.699089,47.9654401 C31.8978757,48.0925889 32.1082339,48.1998657 32.3272359,48.2857775 L35.1426802,49.7272956 L35.9390808,48.2171338 C36.5068506,48.0040742 37.0549022,47.7398978 37.5767495,47.427731 C42.3971232,44.1951486 45.4145225,38.8093865 45.697792,32.9324656 C45.7074954,32.0653478 45.5902971,31.2016059 45.3500678,30.3697668 L46.1240345,28.9854518 Z" id="路径" stroke="#000000" stroke-width="0.57" fill="#000000" fill-rule="nonzero" opacity="0.08" stroke-linecap="round" stroke-linejoin="round"></path>
                        <path d="M50.5659307,27.9786772 L47.8626555,26.6172435 C47.6614811,26.484177 47.4471898,26.3729772 47.2232916,26.2854655 L47.2232916,26.2854655 C45.445317,25.754182 43.5270442,26.0739591 42.0074288,27.1549526 C37.1969334,30.3916872 34.1820943,35.7686325 33.8863863,41.6387773 C33.8863863,44.2243574 34.7613053,46.0548566 36.1297682,46.9586656 L36.1297682,46.9586656 C36.3310045,47.0813109 36.5409757,47.1883903 36.7579151,47.2790029 L39.5733594,48.720521 L40.36976,47.2103592 C40.9402821,46.9952462 41.4918877,46.7311655 42.0186457,46.4209564 C46.8335809,43.1831666 49.8492588,37.8004768 50.1396881,31.9256911 C50.1396881,31.0584273 50.0188325,30.1955655 49.780747,29.3629922 L50.5659307,27.9786772 Z" id="路径" stroke="#FFFFFF" stroke-width="0.57" fill="#000000" fill-rule="nonzero" stroke-linecap="round" stroke-linejoin="round"></path>
                        <path d="M44.822873,28.5850301 C49.3096368,25.907925 52.9775662,28.0587616 53,33.3786498 C52.7077877,39.252903 49.6925378,44.6348289 44.8789576,47.8739152 C40.3921938,50.5510202 36.7130475,48.4001837 36.7018306,43.0688548 C36.9868159,37.1955066 40.0042332,31.8139632 44.822873,28.5850301 L44.822873,28.5850301 Z" id="路径" stroke="#FFFFFF" stroke-width="0.57" fill="#41EABC" fill-rule="nonzero" stroke-linecap="round" stroke-linejoin="round"></path>
                        <path d="M41.4465833,46.9701062 C39.6518778,46.9701062 38.5862714,45.4027413 38.5750545,42.7828393 C38.878509,37.7752141 41.4650197,33.2019496 45.563189,30.4269699 C46.3873073,29.8902636 47.3346787,29.5826361 48.3113319,29.5346015 C50.0499528,29.5346015 51.1716438,31.0905258 51.1716438,33.7104278 C50.8844787,38.7117484 48.3194674,43.2879257 44.2395937,46.0777378 C43.4024398,46.6220909 42.4386155,46.9300333 41.4465833,46.9701062 Z" id="路径" stroke="#FFFFFF" stroke-width="0.57" fill="#FFFFFF" fill-rule="nonzero" stroke-linecap="round" stroke-linejoin="round"></path>
                        <g id="编组-18" transform="translate(44.000000, 33.000000)" stroke="#000000" stroke-linecap="round" stroke-linejoin="round" stroke-width="1.37">
                            <path d="M0.0115580152,7.23767737 C0.0115580152,8.13953307 0.705038929,8.49342581 1.56033206,8.03679001 C2.44662132,7.52175873 3.01775771,6.60721099 3.08599007,5.5937885 C3.08599007,4.6919328 2.40406717,4.32662417 1.54877404,4.78325996 C0.693480914,5.23989576 0.0115580152,4.87458712 0,3.97273143 C0.0684706425,2.95641322 0.639039941,2.03850422 1.52565801,1.51831402 C2.36939312,1.06167823 3.06287404,1.42698686 3.06287404,2.32884256" id="路径"></path>
                            <line x1="1.52565801" y1="1.51831402" x2="1.52565801" y2="0" id="路径"></line>
                            <line x1="1.52565801" y1="9.56651993" x2="1.52565801" y2="8.0596218" id="路径"></line>
                        </g>
                        <path d="M24.9128588,30.7473072 C25.5244011,30.6580343 26.1282001,30.5203307 26.7187812,30.3354449 C26.4271416,31.2850164 26.1018512,32.2231472 25.7316932,33.161278 L25.7316932,33.2985655 C25.3221089,33.4927016 24.887925,33.62748 24.4417486,33.6989871 C24.040766,33.7678986 23.631305,33.7678986 23.2303224,33.6989871 L23.2303224,33.6989871 L23.2303224,33.5502591 C23.1456149,32.6606553 23.1119068,31.7667658 23.1293702,30.873154 C23.71436,30.8838539 24.2993059,30.849434 24.879208,30.7701885 M22.2432343,33.3100061 C21.3077409,32.7188875 20.6632391,31.7494958 20.4709626,30.6443416 L20.4709626,30.5642573 C21.0654176,30.7212365 21.6745572,30.8132792 22.288102,30.8388322 C22.2376058,31.6617518 22.2376058,32.4870865 22.288102,33.3100061 L22.2320174,33.3100061 M26.7187812,32.7494157 C27.0440716,31.868488 27.358145,30.9761196 27.616134,30.0837513 C28.291354,29.8495949 28.9508225,29.5706101 29.59031,29.248586 L29.59031,29.3172297 C28.910612,30.6719678 27.931394,31.8469649 26.7299981,32.7494157 M27.9077736,28.9511299 C28.3121508,27.3983964 28.589783,25.814179 28.7378249,24.2147133 C29.4000608,24.2736191 30.054302,24.404009 30.6895671,24.6036944 L30.8017362,24.6036944 C30.821191,25.7330663 30.6269582,26.8556705 30.2296738,27.9100335 L30.1175048,27.9100335 L30.1175048,27.9100335 C29.3942723,28.3031476 28.6445947,28.6434076 27.8741229,28.9282487 M20.302709,29.3286704 C20.279912,28.1963385 20.470301,27.070059 20.8635545,26.0108906 L20.9757236,26.0108906 C21.6970162,25.6169471 22.4470362,25.2803566 23.2191055,25.0041161 C22.827384,26.5547517 22.557325,28.1347354 22.411488,29.7290921 C21.7515795,29.6730448 21.1003353,29.5386624 20.4709626,29.3286704 L20.3363597,29.3286704 M25.1035462,29.6375671 C24.4796199,29.7299801 23.8495193,29.7720595 23.2191055,29.7634139 C23.3607194,28.0543786 23.6535512,26.3619035 24.0940244,24.7066599 C24.724201,24.507453 25.3695271,24.3620375 26.0233328,24.2719164 C26.6432452,24.1778461 27.2700678,24.1395633 27.8965567,24.1575102 C27.7624178,25.8666872 27.473281,27.5595091 27.0328547,29.2142642 C26.4010376,29.4043842 25.7561243,29.5458824 25.1035462,29.6375671 M21.4804845,24.6952193 C22.1569777,23.3416961 23.132269,22.1668034 24.3295795,21.2630334 L24.3295795,21.2630334 L24.3295795,21.2630334 C24.015506,22.1210798 23.7238664,22.9791263 23.4770944,23.8371728 C22.7749943,24.0987431 22.0894506,24.4044114 21.4243999,24.7524224 M30.5998319,23.4367511 C29.9943891,23.2738358 29.374266,23.1741706 28.7490418,23.139295 C28.799535,22.2972894 28.799535,21.4529236 28.7490418,20.610918 C29.7445096,21.2282343 30.4218658,22.2624389 30.5998319,23.4367511 M24.3520133,23.6312417 C24.643653,22.6702296 24.9689433,21.7320988 25.3391013,20.7939679 L25.3727521,20.5765962 C25.7833136,20.3874996 26.2173252,20.256624 26.6626966,20.1876151 C27.0636792,20.1187036 27.4731403,20.1187036 27.8741229,20.1876151 L27.8741229,20.1876151 L27.8741229,20.3363431 C27.9498105,21.2226803 27.9797635,22.1124629 27.9638581,23.0020076 C27.4082774,23.0040817 26.8535325,23.046135 26.3037555,23.1278544 C25.6550743,23.2207614 25.0139783,23.3622446 24.385664,23.5511573 M26.8758179,19.1007562 C23.6902156,19.558381 20.5158303,23.2765825 19.6745621,27.4981712 L19.5848268,28.0587616 C18.9791137,32.2460284 20.9981574,35.2205896 24.1949766,34.7744054 C27.3917958,34.3282212 30.577398,30.5756979 31.4074493,26.3655498 L31.4971846,25.8164001 C32.1028977,21.6291332 30.0726371,18.6431314 26.8758179,19.1007562" id="形状" fill="#000000" fill-rule="nonzero"></path>
                    </g>
                </g>
            </g>
        </g>
    </g>
</svg>