<?xml version="1.0" encoding="UTF-8"?>
<svg width="55px" height="53px" viewBox="0 0 55 53" version="1.1" xmlns="http://www.w3.org/2000/svg" xmlns:xlink="http://www.w3.org/1999/xlink">
    <title>开奖</title>
    <g id="OKBOX" stroke="none" stroke-width="1" fill="none" fill-rule="evenodd">
        <g id="OKBOX首页" transform="translate(-1375.000000, -2587.000000)" fill-rule="nonzero">
            <g id="编组-20" transform="translate(384.000000, 1631.000000)">
                <g id="编组-19" transform="translate(85.000000, 850.000000)">
                    <g id="开奖" transform="translate(907.000000, 106.000000)">
                        <path d="M1.18525391,1.65250805 L4.34765625,1.65250805 C4.56503906,1.65250805 4.74101562,1.83612005 4.74101562,2.06293488 C4.74101562,2.28974971 4.56503906,2.47336172 4.34765625,2.47336172 L1.18525391,2.47336172 C0.967871094,2.47336172 0.791894531,2.28974971 0.791894531,2.06293488 C0.791894531,1.83612005 0.967871094,1.65250805 1.18525391,1.65250805 Z" id="路径" fill="#FFB400"></path>
                        <path d="M2.76904297,0 C2.98642578,0 3.16240234,0.183612005 3.16240234,0.410426836 L3.16240234,3.71004258 C3.16240234,3.93685741 2.98642578,4.12046942 2.76904297,4.12046942 C2.55166016,4.12046942 2.37568359,3.93685741 2.37568359,3.71004258 L2.37568359,0.410426836 C2.37568359,0.183612005 2.55166016,0 2.76904297,0 Z" id="路径" fill="#FFB400"></path>
                        <path d="M43.4534136,4.6245158 L44.9813778,5.05455754 C45.1937391,5.11443588 45.3184656,5.34150656 45.2620065,5.56276671 C45.2055473,5.78402686 44.9884204,5.91312762 44.776059,5.85324928 L43.2480948,5.42320754 C43.0357335,5.3633292 42.911007,5.13625852 42.9674662,4.91499837 C43.0291017,4.69374996 43.2410523,4.56463747 43.4534136,4.6245158 L43.4534136,4.6245158 Z" id="路径" fill="#043EB8" transform="translate(44.114736, 5.238883) rotate(3.000000) translate(-44.114736, -5.238883) "></path>
                        <path d="M46.2685084,2.30969865 L46.6809061,3.90354858 C46.7383277,4.12506695 46.6145872,4.35157426 46.402484,4.41049015 C46.1903809,4.46940605 45.9726905,4.33931938 45.915269,4.11780102 L45.5028595,2.51855134 C45.4454379,2.29703298 45.5691785,2.07052567 45.7812816,2.01160978 C45.9933965,1.95809362 46.2110868,2.08818028 46.2685084,2.30969865 L46.2685084,2.30969865 Z" id="路径" fill="#2868F0" transform="translate(46.091883, 3.212133) rotate(3.000000) translate(-46.091883, -3.212133) "></path>
                        <path d="M49.5979424,3.693616 L48.482376,4.8574242 C48.3274362,5.01906423 48.0789692,5.01850085 47.9233252,4.85615659 C47.7676812,4.69381234 47.7671178,4.43462492 47.9220576,4.27298489 L49.037624,3.10917669 C49.1925638,2.94753667 49.4410308,2.94810005 49.5966748,3.1104443 C49.7523188,3.27278855 49.7528822,3.53197597 49.5979424,3.693616 L49.5979424,3.693616 Z" id="路径" fill="#8FB3FF" transform="translate(48.760000, 3.983300) rotate(3.000000) translate(-48.760000, -3.983300) "></path>
                        <polygon id="路径" stroke="#FFFFFF" stroke-width="0.6" fill="#393939" stroke-linejoin="round" points="47.4619141 18.1559871 23.730957 14.8563714 23.730957 27.9414269 47.4619141 30.5389968"></polygon>
                        <polygon id="路径" stroke="#FFFFFF" stroke-width="0.6" fill="#262626" stroke-linejoin="round" points="4.74619141 19.1388514 23.730957 14.8563714 23.730957 29.7127428 4.74619141 33.9952228"></polygon>
                        <polygon id="路径" stroke="#FFFFFF" stroke-width="0.6" fill="#000000" stroke-linejoin="round" points="26.8933594 24.0909752 47.4619141 18.1559871 47.4619141 46.2162218 26.8933594 52"></polygon>
                        <polygon id="路径" stroke="#FFFFFF" stroke-width="0.6" fill="#262626" stroke-linejoin="round" points="4.74619141 19.1388514 26.8933594 24.0909752 26.8933594 52 4.74619141 46.3782324"></polygon>
                        <polygon id="路径" stroke="#FFFFFF" stroke-width="0.8" fill="#BDBDBD" stroke-linejoin="round" points="26.8933594 24.0477724 4.74619141 19.1388514 0 29.043099 22.9390625 34.6648665"></polygon>
                        <polygon id="路径" stroke="#FFFFFF" stroke-width="0.8" fill="#626262" stroke-linejoin="round" points="26.8933594 24.0909752 47.4619141 18.1559871 53 28.0602347 33.2233398 34.8214768"></polygon>
                        <path d="M38.0212891,18.8904351 C38.0212891,18.8904351 38.9011719,13.1012566 43.4972656,10.2174681 C43.4972656,10.2174681 43.9009766,10.6926991 44.6980469,11.7619691 C44.6980469,11.7619691 42.6070312,11.4163465 38.0212891,18.8904351 Z" id="路径" fill="#8FB3FF"></path>
                        <path d="M26.8933594,18.6528196 C26.8933594,18.6528196 26.9813477,15.4828123 29.2069336,8.32734448 C29.2069336,8.32734448 29.6106445,8.80257555 30.4077148,9.87184547 C30.4077148,9.87184547 29.5692383,10.6332953 26.8933594,18.6528196 L26.8933594,18.6528196 Z" id="路径" fill="#2868F0"></path>
                        <path d="M19.1607422,18.0803822 C19.1607422,18.0803822 16.6556641,10.4010801 10.5223633,6.93405338 C10.5223633,6.93405338 9.49755859,8.42995119 8.37441122,8.90518226 C8.36923828,8.90518226 15.4290039,11.47035 19.1607422,18.0803822 Z" id="路径" fill="#FFD200"></path>
                    </g>
                </g>
            </g>
        </g>
    </g>
</svg>