<?xml version="1.0" encoding="UTF-8"?>
<svg width="52px" height="54px" viewBox="0 0 52 54" version="1.1" xmlns="http://www.w3.org/2000/svg" xmlns:xlink="http://www.w3.org/1999/xlink">
    <title>$$-03</title>
    <g id="OKBOX" stroke="none" stroke-width="1" fill="none" fill-rule="evenodd">
        <g id="OKBOX首页" transform="translate(-958.000000, -2586.000000)">
            <g id="编组-20" transform="translate(384.000000, 1631.000000)">
                <g id="编组-19" transform="translate(85.000000, 850.000000)">
                    <g id="$$-03" transform="translate(490.000000, 106.000000)">
                        <path d="M27.5196343,1.94070213 L27.5196343,7.64864958 L11.6504794,16.1420754 C9.96254694,16.9236987 8.01016674,16.9236987 6.32223433,16.1420754 C5.69239435,15.9238466 5.24373192,15.3699147 5.16643281,14.7150885 C5.23311051,14.0800891 5.65188991,13.5344496 6.25288624,13.2995176 L27.5080762,1.94070213 L27.5196343,1.94070213 Z" id="路径" stroke="#FFFFFF" stroke-width="0.54" fill="#BDBDBD" fill-rule="nonzero" stroke-linecap="round" stroke-linejoin="round"></path>
                        <path d="M28.848806,23.7108137 L28.848806,29.761238 C28.8839265,30.1430907 29.1107819,30.4820257 29.4527286,30.6635333 C29.7946754,30.845041 30.206037,30.8448758 30.5478342,30.6630937 L36.442422,27.4894749 L36.442422,37.9578506 L30.8945747,40.9373991 L23.0004503,45.081369 L15.2334641,49.3052501 C11.2438738,51.1595347 6.62481774,51.1595347 2.63522747,49.3052501 C0.843735112,48.3919785 0,47.1704777 0,45.9375611 L0.0809061066,14.6808408 C0.0809061066,15.9023416 0.947757249,17.1352582 2.70457556,18.1056093 C6.68874577,19.9659529 11.3070839,19.9659529 15.2912541,18.1056093 L36.5002121,6.68971441 L36.5002121,18.356759 L30.0161655,21.8500228 C29.2951274,22.1947569 28.8403771,22.9196366 28.848806,23.7108137 Z" id="路径" stroke="#FFFFFF" stroke-width="0.54" fill="#FFFFFF" fill-rule="nonzero" stroke-linecap="round" stroke-linejoin="round"></path>
                        <g id="编组" opacity="0.3" transform="translate(27.600540, 18.448086)" fill="#FFFFFF" fill-rule="nonzero">
                            <path d="M10.5871419,0 L10.5871419,9.13271592 L1.72214427,13.8931441 C1.37692981,14.0860825 0.955661735,14.0906997 0.606197569,13.9053751 C0.256733403,13.7200505 0.0278948006,13.3706748 0,12.9798725 L0,6.90661642 C0.0200389793,6.13828466 0.463335092,5.44211075 1.15580152,5.09148913 L10.5871419,0 Z" id="路径"></path>
                        </g>
                        <path d="M36.5002121,6.68971441 L15.2912541,18.1056093 C11.3059872,19.9611206 6.68984252,19.9611206 2.70457556,18.1056093 C-0.762829005,16.2448184 -0.762829005,13.2310222 2.70457556,11.3816472 L23.8673014,0 L27.5080762,1.94070213 L6.31067631,13.356597 C4.84280838,14.1328779 4.8543664,15.4114581 6.31067631,16.1991549 C7.99715605,16.9871923 9.9524416,16.9871923 11.6389213,16.1991549 L32.8594373,4.79467586 L36.5002121,6.68971441 Z" id="路径" stroke="#FFFFFF" stroke-width="0.54" fill="#000000" fill-rule="nonzero" stroke-linecap="round" stroke-linejoin="round"></path>
                        <line x1="9.4082244" y1="19.4641008" x2="9.4082244" y2="50.7094052" id="路径" stroke="#FFFFFF" stroke-width="0.54" stroke-linecap="round" stroke-linejoin="round"></line>
                        <path d="M39.4243899,16.8156132 L39.4243899,25.9483291 L30.5362762,30.6630937 C30.1893213,30.856676 29.7658761,30.8600785 29.4157784,30.6720972 C29.0656807,30.4841159 28.8383136,30.1312664 28.814132,29.7384062 L28.814132,23.676566 C28.8265285,22.9059725 29.2720929,22.2062362 29.9699335,21.8614387 L39.4243899,16.8156132 Z" id="路径" stroke="#FFFFFF" stroke-width="0.54" fill="#000000" fill-rule="nonzero" stroke-linecap="round" stroke-linejoin="round"></path>
                        <polygon id="路径" fill="#000000" fill-rule="nonzero" points="36.3152838 18.2197683 39.4243899 16.7813655 36.3152838 15.3429627"></polygon>
                        <line x1="36.4886541" y1="15.2516356" x2="39.4243899" y2="16.8156132" id="路径" stroke="#FFFFFF" stroke-width="0.54" stroke-linecap="round" stroke-linejoin="round"></line>
                        <path d="M33.9112167,23.0486918 C34.6624877,22.6491355 35.2866205,22.9687805 35.2866205,23.7678932 C35.2205073,24.6802745 34.7068721,25.5030698 33.9112167,25.9711609 C33.1483877,26.3821331 32.5358129,26.0396563 32.5358129,25.2405436 C32.5977663,24.3298072 33.1130082,23.5087146 33.9112167,23.0486918 L33.9112167,23.0486918 Z" id="路径" stroke="#000000" stroke-width="0.54" fill="#FFFFFF" fill-rule="nonzero" stroke-linecap="round" stroke-linejoin="round"></path>
                        <path d="M47.4109785,32.044417 L43.6083915,30.2977851 C43.3953059,30.1743384 43.1708457,30.0711332 42.9380266,29.9895559 L42.9380266,29.9895559 C41.0683917,29.4930036 39.0737207,29.7910086 37.4364113,30.8115003 C32.6976251,33.345829 28.871922,39.4875805 28.8834539,44.5105742 C28.8834539,46.9421598 29.7965633,48.6773759 31.2759892,49.533568 L31.2759892,49.533568 C31.4888053,49.6499026 31.7088453,49.7528504 31.9347961,49.8417971 L35.4022006,51.4286065 L35.7720571,49.7618859 C36.3703579,49.5685768 36.9504553,49.324112 37.5057594,49.0312686 C42.2445457,46.4969399 46.0702487,40.3551885 46.0471327,35.3321947 C46.0428762,34.520592 45.9062831,33.7149653 45.6426021,32.9462727 L47.4109785,32.044417 Z" id="路径" stroke="#FFFFFF" stroke-width="0.54" fill="#000000" fill-rule="nonzero" stroke-linecap="round" stroke-linejoin="round"></path>
                        <path d="M41.4008105,32.6494594 C46.1395968,30.1265466 49.9884159,32.1585759 50,37.2158174 C50.0115319,42.2730588 46.1858289,48.3919785 41.4470426,50.9148913 C36.7082564,53.437804 32.8594373,51.4171906 32.836218,46.3485333 C32.8132052,41.279876 36.6735823,35.2294517 41.4008105,32.6494594 Z" id="路径" stroke="#FFFFFF" stroke-width="0.57" fill="#41EABC" fill-rule="nonzero" stroke-linecap="round" stroke-linejoin="round"></path>
                        <path d="M37.8293838,50.070115 C35.9454274,50.070115 34.8127419,48.5860487 34.8011839,46.1202154 C34.8011839,41.8963343 38.1414503,36.5422796 42.1058495,34.4189231 C42.9860009,33.9114135 43.9773266,33.6215892 44.9953533,33.5741469 C46.8793098,33.5741469 48.0004372,35.0582132 48.0119953,37.5240465 C48.0119953,41.7479277 44.6832869,47.1019824 40.7073296,49.2253388 C39.8313405,49.7327613 38.8437682,50.0226478 37.8293838,50.070115 Z" id="路径" stroke="#FFFFFF" stroke-width="0.54" fill="#FFFFFF" fill-rule="nonzero" stroke-linecap="round" stroke-linejoin="round"></path>
                        <path d="M40.9384899,44.2023451 C40.9384899,45.1042008 41.6319709,45.4580935 42.487264,45.0014577 C43.3735532,44.4864264 43.9446896,43.5718787 44.012922,42.5584562 C44.012922,41.6566005 43.3309991,41.2912919 42.475706,41.7479277 C41.6204128,42.2045635 40.9384899,41.8392548 40.9269319,40.9373991 C40.9954026,39.9210809 41.5659719,39.0031719 42.4525899,38.4829817 C43.296325,38.0263459 43.989806,38.3916546 43.989806,39.2935103" id="路径" stroke="#000000" stroke-width="1.37" stroke-linecap="round" stroke-linejoin="round"></path>
                        <line x1="42.4525899" y1="38.4829817" x2="42.4525899" y2="36.9646677" id="路径" stroke="#000000" stroke-width="1.37" stroke-linecap="round" stroke-linejoin="round"></line>
                        <line x1="42.4525899" y1="46.5311876" x2="42.4525899" y2="45.0242895" id="路径" stroke="#000000" stroke-width="1.37" stroke-linecap="round" stroke-linejoin="round"></line>
                    </g>
                </g>
            </g>
        </g>
    </g>
</svg>