<svg xmlns="http://www.w3.org/2000/svg" xmlns:xlink="http://www.w3.org/1999/xlink" width="18" height="18" viewBox="0 0 18 18">
  <defs>
    <clipPath id="clip-path">
      <rect id="矩形_20647" data-name="矩形 20647" width="18" height="18" transform="translate(1144 664)" fill="#fff"/>
    </clipPath>
  </defs>
  <g id="复制" transform="translate(-1144 -664)" clip-path="url(#clip-path)">
    <g id="复制-2" data-name="复制" transform="translate(1115.261 665.828)">
      <path id="路径_19565" data-name="路径 19565" d="M41.121,196.222a.862.862,0,0,1-.847.875H32.653a.861.861,0,0,1-.847-.875v-7.866a.86.86,0,0,1,.847-.874h7.621a.861.861,0,0,1,.847.874Zm-.847-9.614H32.653a1.721,1.721,0,0,0-1.693,1.748v7.866a1.722,1.722,0,0,0,1.693,1.749h7.621a1.722,1.722,0,0,0,1.694-1.749v-7.866a1.722,1.722,0,0,0-1.694-1.748" transform="translate(0 -183.807)" fill="#8c98a4"/>
      <path id="路径_19566" data-name="路径 19566" d="M221.823.181H214.2a1.721,1.721,0,0,0-1.693,1.748h.847a.861.861,0,0,1,.847-.874h7.621a.861.861,0,0,1,.847.874V9.795a.862.862,0,0,1-.847.875v.874a1.721,1.721,0,0,0,1.693-1.749V1.928A1.721,1.721,0,0,0,221.823.181" transform="translate(-178.997)" fill="#8c98a4"/>
    </g>
  </g>
</svg>
