<?xml version="1.0" encoding="UTF-8"?>
<svg width="20px" height="20px" viewBox="0 0 20 20" version="1.1" xmlns="http://www.w3.org/2000/svg" xmlns:xlink="http://www.w3.org/1999/xlink">
    <title>vuesax/bold/ticket</title>
    <defs>
        <linearGradient x1="9.15146912%" y1="27.7777778%" x2="100%" y2="72.2222222%" id="linearGradient-1">
            <stop stop-color="#A8FF00" offset="0%"></stop>
            <stop stop-color="#FD4558" offset="42.5551408%"></stop>
            <stop stop-color="#9A00FF" offset="100%"></stop>
        </linearGradient>
    </defs>
    <g id="OKBOX" stroke="none" stroke-width="1" fill="none" fill-rule="evenodd">
        <g id="OKBOX首页" transform="translate(-1393.000000, -1502.000000)">
            <g id="ticket" transform="translate(1403.000000, 1512.000000) scale(-1, 1) translate(-1403.000000, -1512.000000) translate(1393.000000, 1502.000000)">
                <path d="M18.5714286,8.69387755 L18.5714286,8.04081633 C18.5714286,5.16081643 17.5029899,4.28571429 13.986711,4.28571429 L9.00332226,4.28571429 L9.00332226,5.75510204 C9.00332226,6.02285714 8.73222591,6.24489796 8.40531561,6.24489796 C8.07840532,6.24489796 7.80730897,6.02285714 7.80730897,5.75510204 L7.80730897,4.28571429 L6.01328904,4.28571429 C2.49701009,4.28571429 1.42857143,5.16081643 1.42857143,8.04081633 L1.42857143,8.36734694 C1.42857143,8.63510204 1.69966778,8.85714286 2.02657807,8.85714286 C2.79202656,8.85714286 3.42192691,9.37306124 3.42192691,10 C3.42192691,10.6269388 2.79202656,11.1428571 2.02657807,11.1428571 C1.69966778,11.1428571 1.42857143,11.364898 1.42857143,11.6326531 L1.42857143,11.9591837 C1.42857143,14.8391836 2.49701009,15.7142857 6.01328904,15.7142857 L7.80730897,15.7142857 L7.80730897,14.244898 C7.80730897,13.9771429 8.07840532,13.755102 8.40531561,13.755102 C8.73222591,13.755102 9.00332226,13.9771429 9.00332226,14.244898 L9.00332226,15.7142857 L13.986711,15.7142857 C17.5029899,15.7142857 18.5714286,14.8391836 18.5714286,11.9591837 C18.5714286,11.6914286 18.3003322,11.4693878 17.9734219,11.4693878 C17.2079734,11.4693878 16.5780731,10.9534694 16.5780731,10.3265306 C16.5780731,9.69959185 17.2079734,9.18367347 17.9734219,9.18367347 C18.3003322,9.18367347 18.5714286,8.96163265 18.5714286,8.69387755 Z M8.40531561,11.9069388 C8.07840532,11.9069388 7.80730897,11.684898 7.80730897,11.4171429 L7.80730897,8.58285709 C7.80730897,8.31510199 8.07840532,8.09306117 8.40531561,8.09306117 C8.73222591,8.09306117 9.00332226,8.31510199 9.00332226,8.58285709 L9.00332226,11.4171429 C9.00332226,11.684898 8.73222591,11.9069388 8.40531561,11.9069388 Z" id="Vector" fill="url(#linearGradient-1)" transform="translate(10.000000, 10.000000) scale(-1, 1) translate(-10.000000, -10.000000) "></path>
                <path d="M20,0 L20,20 L0,20 L0,0 L20,0 Z" id="Vector" opacity="0"></path>
            </g>
        </g>
    </g>
</svg>