<?xml version="1.0" encoding="UTF-8"?>
<svg width="40px" height="40px" viewBox="0 0 40 40" version="1.1" xmlns="http://www.w3.org/2000/svg" xmlns:xlink="http://www.w3.org/1999/xlink">
    <title>编组 4</title>
    <g id="OKBOX" stroke="none" stroke-width="1" fill="none" fill-rule="evenodd">
        <g id="OKBOX资产列表" transform="translate(-406.000000, -315.000000)" fill-rule="nonzero">
            <g id="编组-4" transform="translate(406.000000, 315.000000)">
                <path d="M20,0 L20,0 C31.045695,0 40,8.954305 40,20 L40,20 C40,31.045695 31.045695,40 20,40 L20,40 C8.954305,40 0,31.045695 0,20 L0,20 C0,8.954305 8.954305,0 20,0 Z" id="路径" fill="#DCDCDC"></path>
                <g id="编组" transform="translate(12.000000, 7.280000)">
                    <polygon id="路径" fill="#343434" points="8 -1.18423789e-15 7.82666667 0.6 7.82666667 17.8266667 8 18.0533333 16 13.32"></polygon>
                    <polygon id="路径" fill="#8C8C8C" points="8 -1.18423789e-15 0 13.3333333 8 18.0533333"></polygon>
                    <polygon id="路径" fill="#3C3C3B" points="8 19.5066667 7.89333333 19.6266667 7.89333333 25.76 8 26.0533333 16 14.7866667"></polygon>
                    <polygon id="路径" fill="#8C8C8C" points="8 26.0533333 8 19.5066667 0 14.7866667"></polygon>
                    <polygon id="路径" fill="#141414" points="8 18.0533333 16 13.32 8 9.69333333"></polygon>
                    <polygon id="路径" fill="#393939" points="0 13.2666667 8 18.0533333 8 9.64"></polygon>
                </g>
            </g>
        </g>
    </g>
</svg>