<?xml version="1.0" encoding="UTF-8"?>
<svg width="72px" height="72px" viewBox="0 0 72 72" version="1.1" xmlns="http://www.w3.org/2000/svg" xmlns:xlink="http://www.w3.org/1999/xlink">
    <title>hot</title>
    <defs>
        <linearGradient x1="100%" y1="100%" x2="58.2127098%" y2="18.8359518%" id="linearGradient-1">
            <stop stop-color="#CF6F00" offset="0%"></stop>
            <stop stop-color="#FFDD5F" offset="100%"></stop>
        </linearGradient>
        <linearGradient x1="50%" y1="0%" x2="106.685885%" y2="95.6215556%" id="linearGradient-2">
            <stop stop-color="#CF6F00" offset="0%"></stop>
            <stop stop-color="#FFDD5F" offset="100%"></stop>
        </linearGradient>
    </defs>
    <g id="OKBOX" stroke="none" stroke-width="1" fill="none" fill-rule="evenodd">
        <g id="OKBOX首页" transform="translate(-672.000000, -991.000000)" fill-rule="nonzero">
            <g id="hot" transform="translate(672.000000, 991.000000)">
                <path d="M37.9594514,0.5 L71.5,34.0405486 L71.5,70.7928932 L1.20710678,0.5 L37.9594514,0.5 Z" id="路径" stroke="url(#linearGradient-2)" fill="url(#linearGradient-1)"></path>
                <g id="编组-31" transform="translate(25.000000, 6.000000)" fill="#1A1A1A">
                    <polygon id="路径" points="8.72363124 6.15449778 12.7890499 10.4312223 16.705314 6.7063332 19 9.12827753 8.67391304 19 6.37922705 16.5780557 10.6549919 12.4546188 6.58957327 8.19322307 2.29468599 12.2936668 0 9.87172247 10.3375604 0 12.6322464 2.41811214"></polygon>
                    <path d="M19.7514917,14.2169524 C20.8765991,13.9090085 22.0659964,13.9292605 23.1800227,14.2753303 C24.3002511,14.6303517 25.3096594,15.2701761 26.1099245,16.1324803 C26.9286342,16.9729743 27.5144883,18.0130146 27.8096315,19.1498929 C28.0963885,20.2818277 28.0585406,21.4719233 27.7004426,22.5832487 C27.2905399,23.8265714 26.5671393,24.9426326 25.6003764,25.8232274 C24.6735132,26.7556945 23.5209444,27.4308404 22.2555568,27.7825388 C21.1305918,28.0900546 19.9416535,28.0710757 18.8270258,27.7278095 C16.5638569,26.9809174 14.8234552,25.1485685 14.1901377,22.8459497 C13.9017119,21.7162224 13.9421286,20.5273132 14.3066058,19.4198911 C15.215063,16.925413 17.2349816,15.0003979 19.7660502,14.2169524 L19.7514917,14.2169524 Z M17.4476061,20.4196143 C17.1902395,20.9997727 17.1019112,21.6411026 17.1928321,22.269467 C17.2916945,22.8707008 17.5739718,23.4264532 18.0008298,23.8602673 C18.415016,24.3111473 18.9576367,24.6232565 19.5549517,24.7541804 C20.1786243,24.8808371 20.8254701,24.8251114 21.418442,24.5936409 C22.1206476,24.3252616 22.7591135,23.9126508 23.2928512,23.3822975 C23.84157,22.8807139 24.2771182,22.2674491 24.5703612,21.5835255 C24.8249909,21.0025664 24.9095654,20.3609959 24.8142164,19.7336728 C24.5901825,18.5060097 23.6609227,17.5285921 22.4484572,17.2453108 C21.8292939,17.1245094 21.1887487,17.1801268 20.5995254,17.4058503 C19.9046914,17.6675555 19.2732335,18.0742294 18.7469539,18.5989506 C18.1905669,19.1114445 17.7478767,19.7354774 17.4476061,20.4305601 L17.4476061,20.4196143 Z" id="形状"></path>
                    <polygon id="路径" points="32.1046825 22 40 30.4192825 37.9480265 32.4073244 35.1017406 29.3692078 27.2064231 37 25 34.6532138 32.8953175 27.0224215 30.0490316 23.9843049"></polygon>
                </g>
            </g>
        </g>
    </g>
</svg>