<?xml version="1.0" encoding="UTF-8"?>
<svg width="269px" height="48px" viewBox="0 0 269 48" version="1.1" xmlns="http://www.w3.org/2000/svg" xmlns:xlink="http://www.w3.org/1999/xlink">
    <title>LOGO 插画-06</title>
    <g id="OKBOX" stroke="none" stroke-width="1" fill="none" fill-rule="evenodd">
        <g id="OKBOX首页" transform="translate(-40.000000, -17.000000)" fill-rule="nonzero">
            <g id="LOGO-插画-06" transform="translate(40.000000, 17.000000)">
                <g id="编组-25" transform="translate(48.000000, 10.000000)">
                    <path d="M125.447521,0.054498843 L141.495171,0.054498843 C143.742069,-0.0916010609 145.957555,0.627059711 147.658081,2.05362818 C149.082733,3.32808445 149.878827,5.12812234 149.847392,7.00385322 C149.886171,8.5473502 149.341319,10.0515732 148.314874,11.2348148 C147.505607,12.1059926 146.470096,12.7523593 145.315518,13.1070153 C147.025035,13.4305612 148.569438,14.3072997 149.69414,15.5927052 C150.670526,16.8689082 151.168514,18.4281252 151.106246,20.01406 C151.128894,21.3797692 150.785745,22.7279389 150.110109,23.9276995 C149.457614,25.0571076 148.510308,26.0016427 147.362524,26.6672471 C146.338428,27.1713005 145.223485,27.4801391 144.078558,27.5769038 C142.805806,27.7703329 141.523205,27.8974455 140.236317,27.9576904 L125.447521,27.9576904 L125.447521,0.054498843 Z M134.095299,11.0021119 L137.828075,11.0021119 C138.814984,11.0993687 139.805291,10.8516976 140.619446,10.3040032 C141.172053,9.77668499 141.45976,9.04306195 141.407598,8.2942965 C141.445041,7.57891931 141.157142,6.88344361 140.619446,6.39036379 C139.820284,5.85525323 138.850499,5.61161197 137.882807,5.70283254 L134.095299,5.70283254 L134.095299,11.0021119 Z M134.095299,21.9708798 L138.473921,21.9708798 C139.578636,22.0763503 140.6858,21.7948168 141.59369,21.1775745 C142.206742,20.6378501 142.539673,19.8626602 142.502254,19.0620937 C142.532502,18.2986252 142.202291,17.5631964 141.604636,17.0629643 C140.672156,16.474764 139.560599,16.2099755 138.452028,16.3119687 L134.073406,16.3119687 L134.095299,21.9708798 Z" id="形状" fill="#FFFFFF"></path>
                    <path d="M168.040567,0.054498843 C162.195313,0.054498843 156.925827,3.45742036 154.689969,8.6760256 C152.454111,13.8946308 153.692353,19.9008395 157.827137,23.8931597 C161.961922,27.88548 168.178684,29.077412 173.577722,26.9129997 C178.97676,24.7485875 182.494448,19.6542271 182.490023,14.0060946 C182.483977,6.29913035 176.016506,0.054498843 168.040567,0.054498843 Z M168.040567,19.6332835 C165.684162,19.6375535 163.557321,18.2692523 162.652494,16.166862 C161.747666,14.0644718 162.2432,11.642389 163.907864,10.0308332 C165.572528,8.41927735 168.078205,7.93589796 170.255667,8.80625493 C172.433129,9.6766119 173.853198,11.7291515 173.853198,14.0060946 C173.856094,15.4975418 173.244978,16.9288652 172.154585,17.9844711 C171.064192,19.040077 169.584068,19.6332835 168.040567,19.6332835 L168.040567,19.6332835 Z" id="形状" fill="#FFFFFF"></path>
                    <polygon id="路径" fill="#FFFFFF" points="209.549903 27.9894226 199.916935 27.9894226 180.640052 0.0439214391 190.27302 0.0439214391"></polygon>
                    <polygon id="路径" fill="#FFFFFF" points="211.367032 0.0333440352 221 0.0333440352 211.356085 14.016672 221 28 211.367032 28 201.537025 13.8368562"></polygon>
                    <polygon id="路径" fill="#FFFFFF" points="200.716033 12.6204547 209.549903 0.0227666312 199.916935 0.0227666312 195.86671 5.89322581"></polygon>
                    <polygon id="路径" fill="#FFFFFF" points="195.089504 7.02500803 180.640052 27.9682678 190.27302 27.9682678 199.905988 14.0060946"></polygon>
                    <path d="M28.5486156,11.319434 L30.9787508,0.488172404 L39.2105602,0.488172404 L33.1352222,26.0431803 M32.2704443,27.5345942 L24.5093368,27.5345942 L19.5943335,10.5049739 L14.7012234,27.5345942 L6.21764327,27.5345942 L0,0.488172404 L8.20991629,0.488172404 L11.1654862,14.0907138 L15.5441082,0.498749808 L23.7321314,0.498749808 L32.2704443,27.5345942 Z" id="形状" fill="#41EABC"></path>
                    <polygon id="路径" fill="#41EABC" points="41.9581455 0.488172404 65.1429491 0.488172404 65.1429491 6.26343494 50.6278171 6.26343494 50.6278171 10.5578609 64.0920798 10.5578609 64.0920798 16.0792658 50.6278171 16.0792658 50.6278171 21.3679677 65.5589182 21.3679677 65.5589182 27.4922846 41.9581455 27.4922846"></polygon>
                    <path d="M70.2440438,0.488172404 L86.4339987,0.488172404 C88.6906038,0.351956506 90.9155155,1.05596679 92.651642,2.45556953 C94.0725855,3.67023349 94.8724834,5.42476851 94.840953,7.25771091 C94.8686044,8.76801972 94.3146362,10.2344036 93.2865422,11.372321 C92.465316,12.2207016 91.4269139,12.8446239 90.2762395,13.1810571 C91.9890031,13.4833817 93.5488295,14.3281716 94.7095943,15.5821278 C95.6892984,16.808641 96.192867,18.3282889 96.1326465,19.8765538 C96.1521707,21.1996052 95.8044154,22.50354 95.1255634,23.652687 C94.464361,24.7607837 93.5080657,25.6775251 92.356085,26.3076154 C91.33124,26.8063203 90.2159599,27.1080677 89.0721185,27.1961173 C87.1236317,27.4393976 85.788152,27.5663264 85.197038,27.5663264 L70.2440438,27.5663264 L70.2440438,0.488172404 Z M79.0012878,11.0655763 L82.7559562,11.0655763 C83.7500917,11.1628613 84.7483419,10.9235841 85.5801674,10.3886225 C86.1299411,9.88580072 86.4189183,9.17220784 86.3683194,8.44238015 C86.4059082,7.74549612 86.1163687,7.06937237 85.5801674,6.60191187 C84.7664736,6.08173034 83.7929352,5.84655339 82.8216355,5.93553542 L79.0012878,5.93553542 L79.0012878,11.0655763 Z M79.0012878,21.6429802 L83.3799099,21.6429802 C84.4912934,21.7421876 85.6042274,21.469603 86.5325177,20.8708298 C87.1403081,20.354345 87.4741951,19.6002523 87.4410818,18.8188134 C87.4715206,18.0711639 87.1346878,17.3535529 86.5325177,16.8831485 C85.583349,16.3164439 84.4689563,16.0639501 83.3580167,16.163885 L78.9793947,16.163885 L79.0012878,21.6429802 Z" id="形状" fill="#41EABC"></path>
                    <path d="M106.915003,8.3154513 L99.5698648,7.03558543 C100.060322,4.94833506 101.311413,3.1011952 103.094656,1.8315027 C105.299033,0.500866693 107.878383,-0.131469669 110.472634,0.0227666312 C114.128783,0.0227666312 116.766903,0.689143078 118.397939,2.00074116 C119.968252,3.19561519 120.871125,5.0304473 120.839021,6.9615436 C120.854145,8.09331394 120.506158,9.20183553 119.842885,10.1347648 C119.064877,11.1873553 118.036124,12.0435533 116.843529,12.6310321 C117.713892,12.8082877 118.551605,13.1113906 119.328397,13.5301114 C120.247704,14.0575995 121.003746,14.813715 121.517708,15.719634 C122.058637,16.7166711 122.326211,17.8309882 122.294913,18.9563196 C122.290849,20.5483842 121.848838,22.1107858 121.014166,23.4834485 C120.148778,24.9190382 118.855533,26.0691421 117.303284,26.7835985 C115.320237,27.6418129 113.158155,28.0437156 110.987122,27.9576904 C108.941933,28.0322008 106.900267,27.7380721 104.966516,27.0903433 C103.554164,26.5516565 102.304498,25.6787478 101.33226,24.5517663 C100.310365,23.3011807 99.5651967,21.8611033 99.1429491,20.3208048 L106.904057,19.3265288 C107.038557,20.4981769 107.534349,21.6037285 108.327109,22.49975 C108.997442,23.0927591 109.88179,23.4079838 110.790084,23.3776745 C111.776634,23.4093071 112.728261,23.0229474 113.395364,22.3199341 C114.118096,21.5 114.490007,20.4445787 114.435287,19.3688384 C114.502427,18.3097672 114.141358,17.2668827 113.428203,16.4600523 C112.722267,15.7474243 111.73352,15.3621808 110.713458,15.4023119 C109.854114,15.4430686 109.003997,15.5924228 108.184804,15.8465629 L108.589826,10.4732417 C108.922742,10.5281352 109.259295,10.5599486 109.596909,10.5684383 C110.542622,10.5937377 111.460028,10.2551294 112.147457,9.62704939 C112.803347,9.05838131 113.177562,8.24671523 113.176433,7.39521716 C113.208611,6.66285233 112.932134,5.94917105 112.410174,5.41724263 C111.839769,4.91060315 111.082108,4.64750106 110.308435,4.68740176 C109.497107,4.66359397 108.709344,4.95284874 108.119124,5.49128446 C107.415766,6.28416861 106.993771,7.27392295 106.915003,8.3154513 Z" id="路径" fill="#41EABC"></path>
                </g>
                <g id="编组-3">
                    <g id="编组" transform="translate(12.485914, 14.316794)">
                        <path d="M8.53664007,9.713245 L8.53664007,19.4760742 L0.37540762,14.7899162 C0.142182426,14.6552335 -0.00106320542,14.4059252 0,14.1365576 L0,4.79428105 L8.53664007,9.713245 Z" id="路径" fill="#31BC8A"></path>
                        <path d="M8.53664007,9.713245 L16.9906858,4.80179092 L16.9906858,14.1515774 C16.9906858,14.4167263 16.8508107,14.6622001 16.6227922,14.7974261 L8.53664007,19.4760742 L8.53664007,9.713245 Z" id="路径" fill="#2A9E77"></path>
                        <path d="M0.0300380774,4.79428105 L8.10868216,0.100613162 C8.34098152,-0.0335377206 8.62718614,-0.0335377206 8.85948551,0.100613162 L16.9906858,4.79428105 L8.53664007,9.713245 L0.0300380774,4.79428105 Z" id="路径" fill="#41EABC"></path>
                    </g>
                    <path d="M9.83558435,30.5110561 L9.83558435,17.4889439 L18.0944212,12.7126675 L8.33397765,7.07275612 L0.750863782,11.4510095 C0.282069613,11.7217052 -0.00478502102,12.2238235 0,12.7652365 L0,35.2948424 C0.000610128841,35.8308956 0.286741115,36.3260232 0.750863782,36.5940497 L9.83558435,41.8509577 L9.83558435,30.5110561 Z" id="路径" fill="#31BC8A"></path>
                    <path d="M21.1051427,10.9778878 L32.367193,17.4964538 L32.367193,27.0339869 L41.9399357,21.5067236 L41.9399357,12.7652365 C41.939386,12.2291833 41.653255,11.7340557 41.1891324,11.4660293 L21.7733577,0.201226323 C21.3087589,-0.0670754411 20.7363497,-0.0670754411 20.271751,0.201226323 L11.3371911,5.33797646 L21.1051427,10.9778878 Z" id="路径" fill="#41EABC"></path>
                    <path d="M32.3897171,30.4960364 L32.3897171,30.4960364 L21.1276668,37.0146023 L21.1276668,37.0146023 L21.1276668,37.0146023 L12.8688299,32.2608555 L12.8688299,43.5556979 L20.271751,47.7987737 C20.7363497,48.0670754 21.3087589,48.0670754 21.7733577,47.7987737 L41.2491966,36.5339707 C41.7133193,36.2659443 41.9994503,35.7708167 42,35.2347635 L42,24.9687731 L32.3897171,30.4960364 Z" id="路径" fill="#2A9E77"></path>
                    <path d="M0.55565491,11.5636576 L8.33397765,7.05773638 L18.0944212,12.6976477 L9.83558435,17.4739242 L0.563162944,12.2170161 C0.440442495,12.1551672 0.362413555,12.0300625 0.360809719,11.8926199 C0.359254727,11.7551773 0.434388164,11.6283116 0.55565491,11.5636576 Z" id="路径" fill="#41EABC"></path>
                    <path d="M41.9624598,12.5399405 L41.9624598,21.4992137 L32.3897171,27.0339869 L32.3897171,17.4889439 L41.3993573,12.2320359 C41.5128626,12.1663069 41.6524336,12.1645959 41.7675153,12.2275226 C41.8825969,12.2904493 41.9565017,12.4088889 41.9624598,12.5399405 Z" id="路径" fill="#2A9E77"></path>
                    <path d="M21.1126507,37.0296221 L21.1126507,37.0296221 L21.1126507,37.0296221 L12.8538138,32.2758752 L12.8538138,43.5556979 L20.4294197,47.9114217 C20.5452199,47.9782986 20.6878432,47.9785153 20.8038461,47.9119908 C20.919849,47.8454662 20.9917179,47.7222438 20.9925222,47.5884974 L21.1126507,37.0296221 Z" id="路径" fill="#31BC8A"></path>
                </g>
            </g>
        </g>
    </g>
</svg>