<?xml version="1.0" encoding="UTF-8"?>
<svg width="26px" height="26px" viewBox="0 0 26 26" version="1.1" xmlns="http://www.w3.org/2000/svg" xmlns:xlink="http://www.w3.org/1999/xlink">
    <title>语言</title>
    <g id="OKBOX" stroke="none" stroke-width="1" fill="none" fill-rule="evenodd" opacity="0.72">
        <g id="导航" transform="translate(-1610.000000, -27.000000)">
            <g id="编组-25" transform="translate(1.000000, 0.000000)">
                <g id="语言" transform="translate(1609.000000, 27.000000)">
                    <path d="M13,1.35416667 C6.56818385,1.35416667 1.35416667,6.56818385 1.35416667,13 C1.35416667,19.4318161 6.56818385,24.6458333 13,24.6458333 C19.4318161,24.6458333 24.6458333,19.4318161 24.6458333,13 C24.6398609,6.57065935 19.4293407,1.36013912 13,1.35416667 Z M22.49,15.4375 C21.158252,15.8902073 19.7973566,16.2521476 18.4166667,16.5208333 C18.6766673,14.1916779 18.6766673,11.8408221 18.4166667,9.51166667 C19.7969315,9.75382155 21.158164,10.0941297 22.49,10.53 C22.5618389,10.5405225 22.6348277,10.5405225 22.7066667,10.53 C23.125085,12.1390773 23.125085,13.8284227 22.7066667,15.4375 C22.6334616,15.4465008 22.5610358,15.460986 22.49,15.4808333 L22.49,15.4375 Z M3.25,15.4591667 C2.83158167,13.8500894 2.83158167,12.1607439 3.25,10.5516667 L3.46666667,10.5516667 C4.81166609,10.1022799 6.18750077,9.75107998 7.58333333,9.50083333 C7.33419525,11.8269592 7.33419525,14.1730408 7.58333333,16.4991667 C6.20661966,16.2570139 4.8489891,15.9167012 3.52083333,15.4808333 C3.43141561,15.4652847 3.34075243,15.4580316 3.25,15.4591667 L3.25,15.4591667 Z M9.24083333,9.24083333 C11.7377633,8.93745954 14.2622367,8.93745954 16.7591667,9.24083333 C17.0625405,11.7377633 17.0625405,14.2622367 16.7591667,16.7591667 C14.2622367,17.0625405 11.7377633,17.0625405 9.24083333,16.7591667 C8.93745954,14.2622367 8.93745954,11.7377633 9.24083333,9.24083333 L9.24083333,9.24083333 Z M22.035,8.66666667 C20.7777606,8.29129283 19.4964792,8.0017377 18.2,7.8 C17.9982623,6.50352083 17.7087072,5.22223937 17.3333333,3.965 C19.3889707,4.95287206 21.0471279,6.61102928 22.035,8.66666667 Z M15.4483333,3.25 C15.443093,3.32212716 15.443093,3.3945395 15.4483333,3.46666667 C15.9010407,4.7984147 16.2629809,6.15931006 16.5316667,7.54 C14.1937444,7.29277888 11.8355307,7.30731333 9.50083333,7.58333333 C9.74298822,6.20306847 10.0832963,4.841836 10.5191667,3.51 C10.5244843,3.43787566 10.5244843,3.36545767 10.5191667,3.29333333 C12.1282439,2.874915 13.8175894,2.874915 15.4266667,3.29333333 L15.4483333,3.25 Z M8.53666667,3.9975 L8.645,3.9975 C8.29163206,5.22165762 8.01306199,6.46617845 7.81083333,7.72416667 C6.51034627,7.9571547 5.22585128,8.27194643 3.965,8.66666667 C4.93561626,6.66173679 6.54330793,5.03499664 8.53666667,4.04083333 L8.53666667,3.9975 Z M4.04083333,17.4633333 C4.04083333,17.4633333 4.04083333,17.3875 4.04083333,17.355 C5.27065726,17.7148594 6.52279933,17.9935153 7.78916667,18.1891667 C7.99903862,19.4565248 8.29217333,20.7086804 8.66666667,21.9375 L8.55833333,21.9375 C6.61177305,20.9689942 5.0280557,19.4004684 4.04083333,17.4633333 L4.04083333,17.4633333 Z M10.5408333,22.7066667 C10.546151,22.6345423 10.546151,22.5621243 10.5408333,22.49 C10.095861,21.1592347 9.74827717,19.7978648 9.50083333,18.4166667 C10.6622801,18.5539635 11.8304875,18.6262983 13,18.6333333 C14.1695125,18.6262983 15.3377199,18.5539635 16.4991667,18.4166667 C16.2582979,19.7936535 15.9179622,21.1513757 15.4808333,22.4791667 C15.475593,22.5512938 15.475593,22.6237062 15.4808333,22.6958333 C13.8717561,23.1142517 12.1824106,23.1142517 10.5733333,22.6958333 L10.5408333,22.7066667 Z M17.3333333,22.035 C17.7181422,20.7737117 18.0220928,19.4891585 18.2433333,18.1891667 C19.4908312,17.9785315 20.7244667,17.6927333 21.9375,17.3333333 C21.9375,17.3333333 21.9375,17.3983333 21.9375,17.4416667 C20.9527451,19.4396464 19.3336273,21.0549545 17.3333333,22.035 Z" id="形状" fill="#FFFFFF" fill-rule="nonzero"></path>
                    <polygon id="路径" points="0 26 0 0 26 0 26 26"></polygon>
                </g>
            </g>
        </g>
    </g>
</svg>