<?xml version="1.0" encoding="UTF-8"?>
<svg width="18px" height="18px" viewBox="0 0 18 18" version="1.1" xmlns="http://www.w3.org/2000/svg" xmlns:xlink="http://www.w3.org/1999/xlink">
    <title>语言</title>
    <g id="OKBOX" stroke="none" stroke-width="1" fill="none" fill-rule="evenodd" opacity="0.32">
        <g id="OKBOX奖品页面" transform="translate(-1440.000000, -2298.000000)">
            <g id="编组-10" transform="translate(-0.000000, 2239.000000)">
                <g id="语言" transform="translate(1440.000000, 59.000000)">
                    <path d="M9,0.9375 C4.5472042,0.9375 0.9375,4.5472042 0.9375,9 C0.9375,13.4527958 4.5472042,17.0625 9,17.0625 C13.4527958,17.0625 17.0625,13.4527958 17.0625,9 C17.0583652,4.54891801 13.451082,0.941634775 9,0.9375 Z M15.57,10.6875 C14.6480206,11.0009128 13.7058623,11.2514868 12.75,11.4375 C12.9300004,9.82500775 12.9300004,8.19749225 12.75,6.585 C13.705568,6.75264569 14.6479597,6.98824362 15.57,7.29 C15.6197347,7.29728483 15.6702653,7.29728483 15.72,7.29 C16.0096742,8.40397657 16.0096742,9.57352343 15.72,10.6875 C15.6693196,10.6937313 15.6191786,10.7037595 15.57,10.7175 L15.57,10.6875 Z M2.25,10.7025 C1.96032577,9.58852343 1.96032577,8.41897657 2.25,7.305 L2.4,7.305 C3.33115345,6.99388607 4.28365438,6.75074768 5.25,6.5775 C5.07751979,8.18789483 5.07751979,9.81210517 5.25,11.4225 C4.29689053,11.2548558 3.35699245,11.0192547 2.4375,10.7175 C2.37559542,10.7067355 2.3128286,10.7017142 2.25,10.7025 L2.25,10.7025 Z M6.3975,6.3975 C8.12614384,6.18747199 9.87385616,6.18747199 11.6025,6.3975 C11.812528,8.12614384 11.812528,9.87385616 11.6025,11.6025 C9.87385616,11.812528 8.12614384,11.812528 6.3975,11.6025 C6.18747199,9.87385616 6.18747199,8.12614384 6.3975,6.3975 L6.3975,6.3975 Z M15.255,6 C14.3846035,5.74012581 13.4975625,5.53966456 12.6,5.4 C12.4603354,4.5024375 12.2598742,3.61539649 12,2.745 C13.4231336,3.42891143 14.5710886,4.57686643 15.255,6 Z M10.695,2.25 C10.691372,2.29993419 10.691372,2.35006581 10.695,2.4 C11.0084128,3.3219794 11.2589868,4.26413774 11.445,5.22 C9.82643841,5.04884692 8.19382896,5.05890923 6.5775,5.25 C6.74514569,4.29443202 6.98074362,3.35204031 7.2825,2.43 C7.28618145,2.38006777 7.28618145,2.32993223 7.2825,2.28 C8.39647657,1.99032577 9.56602343,1.99032577 10.68,2.28 L10.695,2.25 Z M5.91,2.7675 L5.985,2.7675 C5.74036066,3.61499374 5.54750446,4.47658508 5.4075,5.3475 C4.50716281,5.50879941 3.61789704,5.72673214 2.745,6 C3.4169651,4.61197163 4.52998242,3.4857669 5.91,2.7975 L5.91,2.7675 Z M2.7975,12.09 C2.7975,12.09 2.7975,12.0375 2.7975,12.015 C3.64891657,12.2641334 4.51578415,12.457049 5.3925,12.5925 C5.53779597,13.4699018 5.74073538,14.3367788 6,15.1875 L5.925,15.1875 C4.57738134,14.516996 3.48096164,13.4310935 2.7975,12.09 L2.7975,12.09 Z M7.2975,15.72 C7.30118145,15.6700678 7.30118145,15.6199322 7.2975,15.57 C6.9894422,14.6487009 6.74880727,13.7062141 6.5775,12.75 C7.38157855,12.8450517 8.19033747,12.8951296 9,12.9 C9.80966253,12.8951296 10.6184215,12.8450517 11.4225,12.75 C11.2557447,13.7032986 11.0201277,14.6432601 10.7175,15.5625 C10.713872,15.6124342 10.713872,15.6625658 10.7175,15.7125 C9.60352343,16.0021742 8.43397657,16.0021742 7.32,15.7125 L7.2975,15.72 Z M12,15.255 C12.2664061,14.3818004 12.4768335,13.4924943 12.63,12.5925 C13.4936524,12.4466757 14.3477077,12.2488154 15.1875,12 C15.1875,12 15.1875,12.045 15.1875,12.075 C14.5057466,13.4582167 13.3848189,14.576507 12,15.255 Z" id="形状" fill="#FFFFFF" fill-rule="nonzero"></path>
                    <polygon id="路径" points="0 18 0 0 18 0 18 18"></polygon>
                </g>
            </g>
        </g>
    </g>
</svg>