<?xml version="1.0" encoding="UTF-8"?>
<svg width="18px" height="18px" viewBox="0 0 18 18" version="1.1" xmlns="http://www.w3.org/2000/svg" xmlns:xlink="http://www.w3.org/1999/xlink">
    <title>Polygon备份</title>
    <g id="OKBOX" stroke="none" stroke-width="1" fill="none" fill-rule="evenodd">
        <g id="OKBOX首页" transform="translate(-618.000000, -1138.000000)" fill-rule="nonzero">
            <g id="编组-11" transform="translate(384.000000, 743.000000)">
                <g id="编组-10" transform="translate(226.000000, 391.000000)">
                    <g id="编组-5备份-7" transform="translate(8.000000, 1.000000)">
                        <g id="Polygon备份" transform="translate(0.000000, 3.000000)">
                            <circle id="椭圆形" fill="#8247E5" cx="9" cy="9" r="9"></circle>
                            <path d="M11.773096,7.23447506 C11.5606195,7.12368211 11.3050191,7.12368211 11.0925426,7.23447506 L9.5342662,8.11062784 L8.47209411,8.68444622 L6.92017799,9.55442892 C6.70926841,9.67110415 6.4505342,9.67110415 6.23962461,9.55442892 L4.99936378,8.87571901 C4.80062068,8.7586626 4.68355675,8.54573229 4.69406881,8.32041091 L4.69406881,6.96916118 C4.69233614,6.73952235 4.82221288,6.52795016 5.03116534,6.42002317 L6.24598493,5.74748335 C6.45846141,5.6366904 6.71406182,5.6366904 6.9265383,5.74748335 L8.1477182,6.42002317 C8.35871977,6.52897222 8.48893901,6.74348585 8.48481473,6.97533127 L8.48481473,7.84531397 L9.54698683,7.22830497 L9.54698683,6.37683254 C9.55111111,6.14498711 9.42089187,5.93047349 9.20989029,5.82152443 L6.95197955,4.58750642 C6.74106997,4.47083119 6.48233576,4.47083119 6.27142617,4.58750642 L3.93719169,5.85237488 C3.72619011,5.96132394 3.59597087,6.17583756 3.6,6.40768299 L3.6,8.93741991 C3.59597087,9.16926534 3.72619011,9.38377896 3.93719169,9.49272801 L6.23962461,10.726746 C6.44822067,10.8435772 6.70522162,10.8435772 6.91381768,10.726746 L8.47209411,9.86910351 L9.5342662,9.2520945 L11.0925426,8.39445199 C11.3050191,8.28365903 11.5606195,8.28365903 11.773096,8.39445199 L12.9624743,9.08550207 C13.1691076,9.19968021 13.299319,9.41020872 13.3059312,9.64081018 L13.3059312,10.99823 C13.3088265,11.231425 13.1759407,11.4462775 12.9624743,11.5535381 L11.7476548,12.2384181 C11.5351783,12.349211 11.2795779,12.349211 11.0671014,12.2384181 L9.84592149,11.5658783 C9.64262705,11.4492956 9.51532017,11.2395796 9.50882496,11.0105702 L9.50882496,10.1344174 L8.44665286,10.7514264 L8.44665286,11.6275792 C8.44375758,11.8607742 8.57664337,12.0756267 8.79010971,12.1828873 L11.0861823,13.4169053 C11.2986588,13.5276982 11.5542592,13.5276982 11.7667357,13.4169053 L14.0628083,12.1828873 C14.2679059,12.0680601 14.3958667,11.8572669 14.4,11.6275792 L14.4,9.0669918 C14.4040291,8.83514638 14.2738099,8.62063275 14.0628083,8.5116837 L11.773096,7.23447506 Z" id="路径" fill="#FFFFFF"></path>
                        </g>
                    </g>
                </g>
            </g>
        </g>
    </g>
</svg>