<?xml version="1.0" encoding="UTF-8"?>
<svg width="18px" height="18px" viewBox="0 0 18 18" version="1.1" xmlns="http://www.w3.org/2000/svg" xmlns:xlink="http://www.w3.org/1999/xlink">
    <title>蒙版组 353</title>
    <defs>
        <rect id="path-1" x="0" y="0" width="18" height="18"></rect>
    </defs>
    <g id="OKBOX" stroke="none" stroke-width="1" fill="none" fill-rule="evenodd">
        <g id="OKBOX首页" transform="translate(-687.000000, -1202.000000)">
            <g id="编组-11" transform="translate(384.000000, 743.000000)">
                <g id="蒙版组-353" transform="translate(303.000000, 459.000000)">
                    <mask id="mask-2" fill="white">
                        <use xlink:href="#path-1"></use>
                    </mask>
                    <g id="矩形_21248"></g>
                    <g id="蒙版组_353" mask="url(#mask-2)">
                        <g transform="translate(0.162000, 7.078000)" id="更多">
                            <g transform="translate(-0.000000, 0.000000)">
                                <path d="M0,1.921 C0,2.981939 0.860060996,3.842 1.921,3.842 C2.981939,3.842 3.842,2.981939 3.842,1.921 C3.842,0.860060996 2.981939,0 1.921,0 C0.860060996,0 0,0.860060996 0,1.921 Z" id="路径_16591" fill="#909090" fill-rule="nonzero"></path>
                                <path d="M6.917,1.921 C6.917,2.981939 7.777061,3.842 8.838,3.842 C9.898939,3.842 10.759,2.981939 10.759,1.921 C10.759,0.860060996 9.898939,0 8.838,0 C7.777061,0 6.917,0.860060996 6.917,1.921 Z" id="路径_16592" fill="#909090" fill-rule="nonzero"></path>
                                <path d="M13.834,1.921 C13.834,2.981939 14.694061,3.842 15.755,3.842 C16.815939,3.842 17.676,2.981939 17.676,1.921 C17.676,0.860060996 16.815939,0 15.755,0 C15.2455191,0 14.7569053,0.20239049 14.3966479,0.562647873 C14.0363905,0.922905256 13.834,1.41151912 13.834,1.921 Z" id="路径_16593" fill="#909090" fill-rule="nonzero"></path>
                            </g>
                        </g>
                    </g>
                </g>
            </g>
        </g>
    </g>
</svg>